<mxfile host="app.diagrams.net" agent="Mozilla/5.0 (Macintosh; Intel Mac OS X 10_15_7) AppleWebKit/537.36 (KHTML, like Gecko) Chrome/128.0.0.0 Safari/537.36" version="25.0.3">
  <diagram name="Page-1" id="JGzO1bNXwNjqKMgMcOFI">
    <mxGraphModel dx="1266" dy="1859" grid="1" gridSize="10" guides="1" tooltips="1" connect="1" arrows="1" fold="1" page="1" pageScale="1" pageWidth="827" pageHeight="1169" math="0" shadow="0">
      <root>
        <mxCell id="0" />
        <mxCell id="1" parent="0" />
        <mxCell id="8EW6fI2R_Ii0T-t069nl-1" value="&lt;b&gt;Data&lt;/b&gt;" style="text;html=1;align=center;verticalAlign=middle;whiteSpace=wrap;rounded=0;fillColor=#e1d5e7;strokeColor=#9673a6;" parent="1" vertex="1">
          <mxGeometry x="68.75" y="10" width="80" height="51.5" as="geometry" />
        </mxCell>
        <mxCell id="8EW6fI2R_Ii0T-t069nl-2" value="Backend" style="text;html=1;align=center;verticalAlign=middle;whiteSpace=wrap;rounded=0;fontStyle=1;fillColor=#dae8fc;strokeColor=#6c8ebf;" parent="1" vertex="1">
          <mxGeometry x="526.5" y="9.25" width="103" height="50" as="geometry" />
        </mxCell>
        <mxCell id="8EW6fI2R_Ii0T-t069nl-3" value="Clients" style="text;html=1;align=center;verticalAlign=middle;whiteSpace=wrap;rounded=0;fontStyle=1;fillColor=#fff2cc;strokeColor=#d6b656;" parent="1" vertex="1">
          <mxGeometry x="1024" y="8.5" width="100" height="50" as="geometry" />
        </mxCell>
        <mxCell id="8EW6fI2R_Ii0T-t069nl-6" value="" style="whiteSpace=wrap;html=1;fillColor=#f5f5f5;fontColor=#333333;strokeColor=#666666;" parent="1" vertex="1">
          <mxGeometry x="196" y="70" width="764" height="670" as="geometry" />
        </mxCell>
        <mxCell id="8EW6fI2R_Ii0T-t069nl-7" value="Domain" style="rounded=0;whiteSpace=wrap;html=1;align=center;fillColor=#dae8fc;strokeColor=#6c8ebf;" parent="1" vertex="1">
          <mxGeometry x="220" y="80" width="130" height="60" as="geometry" />
        </mxCell>
        <mxCell id="8EW6fI2R_Ii0T-t069nl-13" value="Core" style="rounded=0;whiteSpace=wrap;html=1;fillColor=#dae8fc;strokeColor=#6c8ebf;" parent="1" vertex="1">
          <mxGeometry x="518" y="80" width="120" height="60" as="geometry" />
        </mxCell>
        <mxCell id="8EW6fI2R_Ii0T-t069nl-14" value="Api" style="rounded=0;whiteSpace=wrap;html=1;fillColor=#dae8fc;strokeColor=#6c8ebf;" parent="1" vertex="1">
          <mxGeometry x="810" y="80" width="120" height="60" as="geometry" />
        </mxCell>
        <mxCell id="8EW6fI2R_Ii0T-t069nl-33" value="" style="group;strokeColor=#9673a6;fillColor=#e1d5e7;" parent="1" vertex="1" connectable="0">
          <mxGeometry x="67.5" y="119" width="82.5" height="181" as="geometry" />
        </mxCell>
        <mxCell id="8EW6fI2R_Ii0T-t069nl-28" value="Block data stored as json documents" style="text;html=1;align=center;verticalAlign=middle;whiteSpace=wrap;rounded=0;" parent="8EW6fI2R_Ii0T-t069nl-33" vertex="1">
          <mxGeometry y="125" width="80" height="50" as="geometry" />
        </mxCell>
        <mxCell id="8EW6fI2R_Ii0T-t069nl-32" value="" style="group" parent="8EW6fI2R_Ii0T-t069nl-33" vertex="1" connectable="0">
          <mxGeometry width="82.5" height="125" as="geometry" />
        </mxCell>
        <mxCell id="8EW6fI2R_Ii0T-t069nl-5" value="Bitcoin blocks" style="shape=datastore;whiteSpace=wrap;html=1;" parent="8EW6fI2R_Ii0T-t069nl-32" vertex="1">
          <mxGeometry x="10" width="60" height="60" as="geometry" />
        </mxCell>
        <mxCell id="8EW6fI2R_Ii0T-t069nl-21" value="" style="group" parent="8EW6fI2R_Ii0T-t069nl-32" vertex="1" connectable="0">
          <mxGeometry y="70" width="82.5" height="55" as="geometry" />
        </mxCell>
        <mxCell id="8EW6fI2R_Ii0T-t069nl-20" value="" style="rounded=0;whiteSpace=wrap;html=1;fillColor=#999999;" parent="8EW6fI2R_Ii0T-t069nl-21" vertex="1">
          <mxGeometry width="80" height="50" as="geometry" />
        </mxCell>
        <mxCell id="8EW6fI2R_Ii0T-t069nl-19" value="" style="shape=image;verticalLabelPosition=bottom;labelBackgroundColor=default;verticalAlign=top;aspect=fixed;imageAspect=0;image=data:image/svg+xml,PHN2ZyB4bWxuczp4bGluaz0iaHR0cDovL3d3dy53My5vcmcvMTk5OS94bGluayIgeG1sbnM9Imh0dHA6Ly93d3cudzMub3JnLzIwMDAvc3ZnIiB2aWV3Qm94PSItNDMuNDM5NyAtNzMuMzAwNSAzNzYuNDc3NCA0MzkuODAzIiB3aWR0aD0iMTIwMCIgaGVpZ2h0PSI4MDAiPjxkZWZzPjxjbGlwUGF0aCBpZD0iYiI+PHVzZSBvdmVyZmxvdz0idmlzaWJsZSIgd2lkdGg9IjI4OS41OTgiIGhlaWdodD0iMjkzLjIwMSIgeGxpbms6aHJlZj0iI2EiLz48L2NsaXBQYXRoPjxwYXRoIGQ9Ik0tMjc1Ljc4Ni0xNTEuMDg0aDg0MS44OXY1OTUuMjhoLTg0MS44OXoiIGlkPSJhIi8+PC9kZWZzPjxwYXRoIGZpbGw9IiM0NDQiIGQ9Ik01OS4yOTggMjE4Ljk5MmMtMTEuMjE0IDAtMTYuNDc2IDcuNjIxLTE2LjQ3NiAxOS4zNDMgMCAxMS4zMjIgNS4yNjIgMTkuMTYxIDE2LjQ3NiAxOS4xNjEgMTEuMTc3IDAgMTYuNDQtNy44MzkgMTYuNDQtMTkuMTYxIDAtMTEuNzIyLTUuMjYzLTE5LjM0My0xNi40NC0xOS4zNDNtMCAzMy40MjNjLTcuMjU4IDAtOS42OS01LjgwOC05LjY5LTE0LjE1MyAwLTkuMDM2IDIuNDMyLTE0LjExNyA5LjY5LTE0LjExNyA3LjE0OSAwIDkuNjg5IDUuMDgxIDkuNjg5IDE0LjExNyAwIDguMzQ1LTIuNDMxIDE0LjE1My05LjY4OSAxNC4xNTNtNTYuNTA0LTMyLjk4N2gtNi43MTR2MjkuNTRjLS44MzQuNjUyLTEuODE1IDEuMjMxLTIuOTAzIDEuNzQyLTEuODUyLjg2Ny00LjQyNyAxLjcwNC03LjQ3NiAxLjcwNC01LjM3MSAwLTcuMDQtMy4zMDItNy4wNC0xMS43MjF2LTIxLjI2NmgtNi42Nzh2MjEuNTJjMCAxMS4zNTkgMy43MzggMTYuNTQ4IDEyLjE1OCAxNi41NDggNC4xMDEgMCA3LjI4OC0xLjIwOSA5LjUwOC0yLjQ2OCAxLjMtLjczNyAyLjQzMS0xLjU2IDMuMzc1LTIuNDY3bC45MDcgNC42ODEgNC44NjMtLjM5OHptOS41NDUgMTkuMDUxYzAgMTQuMjI1IDguMDU2IDE5LjEyMSAxNi4wNCAxOS4wMTYgMy4wODUtLjA0MSA1LjcyOS0uNDUzIDcuNTg1LS45NzkgMS4wODQtLjMwOCAyLjA2OS0uNjE3IDIuOTQtMS4wMTdsLjU3OS00LjgyN2MtLjk0Mi4zMjctMS45Ni42MTQtMy4wODQuODcxYTM1LjY2NCAzNS42NjQgMCAwMS03LjIyMi44NzFjLTYuNDk3LjEwMy05Ljk2Mi00LjI4Mi05Ljk4LTE0LjA0NC0uMDE5LTEwLjEyNSAzLjQ4NC0xNC4yNjMgOS45OC0xNC4yNjMgMi43NTggMCA1LjI5Ny40NzYgNy4xODYuOTA4YTI5LjcgMjkuNyAwIDAxMy4wODUuOTA2bC0uNTQ0LTQuODk4Yy0uODcxLS4zOTktMS44NTctLjcwNi0yLjk3Ny0xLjAxOC0xLjg5My0uNTIzLTQuNTM3LTEuMDE1LTcuNzMtMS4wMTUtNy44MzggMC0xNS44NTggNC40OTktMTUuODU4IDE5LjQ4OW0zNS44MTggMTkuMDE3aDYuNzE0di0yOC44NTJjMS43NDItLjU4IDYuMzE0LTMuODgzIDEwLjgxNC0zLjg4MyA0LjM1NCAwIDYuNzE0IDIuNDY4IDYuNzE0IDEyLjMzOXYyMC4zOTZoNi43MTR2LTIwLjkwNGMwLTEyLjE5Mi0zLjI2Ni0xNi45NDctMTEuNzIyLTE2Ljk0Ny00Ljg5OSAwLTguNTY1IDEuMTk4LTEyLjUyMSA0LjI4MnYtMTguNTgxbC02LjcxMy42NTR6bTc0LjY0OS00Ny45MDNjLTQuNTU5LTMuNTAyLTEwLjQxNS00LjI0Ny0xNi41ODUtNC4yNDdoLTE0Ljk1MXY1Mi4xNWgxNi41ODRjMTguMTQ2IDAgMjIuNDY1LTEwLjc0MiAyMi40NjUtMjcuMTQ2IDAtMTEuMzU4LTMtMTcuMjkxLTcuNTEzLTIwLjc1N20tMTcuMjM3IDQyLjY3N2gtNy4zMzF2LTQxLjY2MWg5Ljg3YzEyLjAxMyAwIDE1LjQwNCA2LjUzMiAxNS4zODggMjAuMDMyLS4wMjEgMTYuNzMtMy43NzQgMjEuNjI5LTE3LjkyNyAyMS42MjltNjUuMTQyLTIxLjA4NWMtMS43MDktLjk3NC0zLjY2NS0xLjUyMy01Ljg3OS0xLjcwNCAyLjc1OC0uMjkxIDkuMjktMi43OTUgOS4yOS0xMC40NTIgMC05Ljg3MS00Ljg5OS0xMy42ODMtMTguMzk5LTEzLjY4M2gtMTQuMzM1djUyLjE1aDE3LjA5M2MxMi4wODUgMCAxOC4xMDktNC42NDYgMTguMTA5LTE1LjA2MiAwLTYuNDk0LTIuOTQ0LTkuNTc0LTUuODc5LTExLjI0OW0tMjIuNzU0LTIwLjU3Nmg2Ljg1OGM5LjExIDAgMTIuNzkzIDEuNTIzIDEyLjc3NCA4LjEyOS0uMDE3IDUuNjk2LTIuODY3IDguODE4LTExLjE3OCA4LjgxOGgtOC40NTV2LTE2Ljk0N3ptOC43ODIgNDEuNjYxaC04Ljc4MnYtMjAuMTA0aDguNjczYzkuMjkxIDAgMTMuNSAyLjE3OCAxMy41IDEwLjE5OCAwIDguMzgyLTQuNTM2IDkuOTA2LTEzLjM5MSA5LjkwNm0tMjQ4Ljk1MyA1LjIyNmM0LjI0NiAwIDcuODQtLjU3NyAxMC40MTUtMS4xOTggMS40ODktLjM1OCAyLjgzMS0uNzYyIDQuMDI5LTEuMjM0bC42MTctNS42NmMtMS4yNzEuNDcyLTIuNjU1Ljg4Ny00LjEzOCAxLjMwNi0yLjYxOS43NDItNi4wOTYgMS4yODYtMTAuMTI1IDEuMzA3LTkuNjUzLjA1Mi0xNC4zNTMtNi4yMDYtMTQuNDA3LTIxLjg0Ni0uMDU1LTE2LjExNCA1LjczMy0yMS4xNTIgMTUuMDk3LTIxLjIzMSAzLjczOC0uMDMgNy4xMTkuNTU3IDkuNTgxIDEuMTI1IDEuNDU3LjMzOSAyLjc5NC43NjQgMy45OTIgMS4xOThsLS41ODEtNS42MjVjLTEuMTYxLS4zOTgtMi40NjctLjcyOS0zLjkyLTEuMDUyYTQ1Ljg3MyA0NS44NzMgMCAwMC05LjgzNC0xLjA4OWMtMTIuMzc1IDAtMjEuNTQ0IDYuNjA0LTIxLjUyIDI2Ljc0Ni4wMTIgMTAuNDE1IDIuMzIyIDE3LjM4MyA2LjA2IDIxLjU5MyAzLjczOCA0LjIwOCA4Ljg5MSA1LjY2IDE0LjczNCA1LjY2IiBjbGlwLXBhdGg9InVybCgjYikiLz48cGF0aCBmaWxsPSIjNzc3IiBkPSJNMjEzLjM2MSAyNzAuOTI3Yy0yLjA4NSAwLTQuMTA4Ljk0OS01LjY5OCAyLjYwMWwtLjcyMi0yLjYwMS0yLjY2My4yMDd2MjEuMzI0aDMuODE5di0xNi40OTRhOS43NyA5Ljc3IDAgMDExLjU0OC0uOTVjLjk3Mi0uNDcyIDIuMzEyLS45NyAzLjg4MS0uOTcuNjYxIDAgMS4wNTMuMDgzIDEuMjguMTQ1bC4yODkuMTQ1LjQ1NC0yLjk1MmE1LjUgNS41IDAgMDAtLjY4Mi0uMjI4Yy0uNDEyLS4xMDMtLjk0OS0uMjI3LTEuNTA2LS4yMjdtMjIuMTEgNy4zNDhjLS4wOS0zLjc3Ny0yLjY2My03LjM4LTcuODY1LTcuMzQ5LTUuMjQ0LjAzMS05LjIyOCAzLjMyNC05LjIyOCAxMS4xODggMCA3LjEyMiAzLjM2NCAxMC43MTUgMTAuMDMyIDEwLjcxNSAxLjY3MiAwIDMuMDk4LS4yNDYgNC4xNDktLjQ5Ni41OTktLjE0MyAxLjE1Ni0uMzEgMS42NTItLjQ5NWwuMzkyLTIuNzY3YTIyLjY3NyAyMi42NzcgMCAwMS01LjkyNS44NjdjLTMuODE5LjA0NC02LjM1OC0xLjc3NC02LjM1OC02Ljk3N3YtLjc0M2gxMi44MmMuMDgyLS4yNjkuMTM1LS45My4yMDYtMS42NTIuMDc0LS43NDQuMTM4LTEuNzEyLjEyNS0yLjI5MW0tMy4zMDQgMS4xMTZhNC41NDkgNC41NDkgMCAwMC0uMDIxLjUxNmgtOS43NjRjLjE2NS0yLjQ3OC44NDYtMy45MjIgMS44MTYtNC44NTEuOTctLjkyOSAyLjE4OC0xLjMwMSAzLjQ4OC0xLjMwMSAyLjU0IDAgNC40MDMgMS40ODUgNC41MDEgNC45OTYuMDA2LjE4Ni4wMDcuNDEzLS4wMi42NG0xMi4zNjUgMTMuNDM4di0yOS42NjVsLTMuNzk4LjM3MnYyOS4yOTN6bTIyLjQyLTIuNmMtLjM1Mi0uMTQ2LS40NTUtLjY2MS0uNDU1LTEuNjUxdi04LjM2MWMwLTYuNjg4LTEuNTg5LTkuMTI1LTguMjc4LTkuMTI1LTIuMDYzIDAtMy42OTIuMzM2LTQuODUxLjY2MS0uNjguMTkxLTEuMjguNDEzLTEuNzk2LjY0MWwtLjQxMyAyLjg3YTE4LjAyNCAxOC4wMjQgMCAwMTIuMTI3LS42NDFjMS4zLS4zMTMgMi45MzEtLjYxOSA0LjY0NC0uNjE5IDMuNTMgMCA0Ljc3LjY4MSA0Ljc3IDUuMDc4djIuMzMybC0xLjEzNS0uMTY1Yy0uNzE5LS4xMDQtMS42NTItLjE0NC0yLjYyMi0uMTQ0LTQuNzg5IDAtOS40NTUgMS4xMTQtOS40NTUgNi4wNDggMCAzLjczNyAyLjUzOSA2LjA4NCA2LjI5NiA2LjA0OSAyLjc0Ni0uMDI3IDQuNTE5LS42NjQgNS42NTctMS4zODQuNjU3LS40MTYgMS4xNzYtLjg4NyAxLjU0OC0xLjQwMyAwIC4zMy4yMjcgMS4yMTguNzIzIDEuNzc1LjQ5NS41NTcgMS4yNTkgMS4wMTIgMi4zOTUgMS4wMTIuNjYgMCAxLjI0MS0uMDcxIDEuNjUxLS4xODZsLjY2LS4xODcuMjctMi41MTljLS41OC4wMDEtMS4zNDQuMDgyLTEuNzM2LS4wODFtLTQuMjUzLTEuNjExYy0uNDc2LjM1MS0xLjAxNS42MzMtMS42MS45MDgtMS4wMTUuNDY4LTIuNDU3Ljg4OC00LjE5Ljg4OC0yLjQ5OCAwLTMuOTIzLS45OTEtMy45MjMtMy4xMTcgMC0zLjYxMiA0LjE1LTMuODkgNi41ODYtMy44MThsMi4xMjYuMDYyIDEuMDEyLjA2MnY1LjAxNXptMTkuNzk3LTYuMzc5bDcuMTAyLTEwLjY5M2gtNC4wNDZsLTUuMTYxIDguNTQ3LTUuMjAzLTguNTQ3aC00LjAwNGw3LjA1OSAxMC42OTMtNy4wNTkgMTAuNTloNC4yMzFsNC45NzYtOC4yOTkgNC45MzMgOC4yOTloNC4yNzR6IiBjbGlwLXBhdGg9InVybCgjYikiLz48cGF0aCBmaWxsPSIjZTQyNTI4IiBkPSJNMjM1LjI5OCAxMjYuNjk5YzAgMTIuMDAxLTYuMzIzIDE3Ljg4Mi0xOC4xIDE4LjA5di4wMUg3Mi4zOTl2LS4wMWMtMTEuNzc3LS4yMDgtMTguMS02LjA4OS0xOC4xLTE4LjA5czYuMzIzLTE3Ljg4MiAxOC4xLTE4LjA5di0uMDFoMTQ0Ljc5OXYuMDFjMTEuNzc3LjIwOCAxOC4xIDYuMDg5IDE4LjEgMTguMDltLTE4LjEgMjcuMTU5di0uMDFINzIuMzk5di4wMWMtMTEuNzc3LjIwOC0xOC4xIDYuMDktMTguMSAxOC4wOTEgMCAxMi4wMDEgNi4zMjMgMTcuODgyIDE4LjEgMTguMDl2LjAxaDE0NC43OTl2LS4wMWMxMS43NzYtLjIwOCAxOC4xLTYuMDg5IDE4LjEtMTguMDlzLTYuMzIzLTE3Ljg4My0xOC4xLTE4LjA5MW00NS4yNS05OS41Mzh2LS4wMWMtMTEuNzc3LjIwOC0xOC4xMDEgNi4wODktMTguMTAxIDE4LjA5djk5LjU0OWMwIDEyLjAwMSA2LjMyMyAxNy44ODIgMTguMTAxIDE4LjA5di0uMDIxYzE3LjY2NS0uNjIzIDI3LjE0OS0xOC4yNjYgMjcuMTQ5LTU0LjI3VjkwLjVjLjAwMS0yNC4wMDItOS40ODQtMzUuNzY0LTI3LjE0OS0zNi4xOE0yNy4xNSA1NC4zMXYuMDFDOS40ODQgNTQuNzM2IDAgNjYuNDk3IDAgOTAuNXY0NS4yNDljMCAzNi4wMDQgOS40ODQgNTMuNjQ2IDI3LjE1IDU0LjI3di4wMjFjMTEuNzc3LS4yMDggMTguMDk5LTYuMDg5IDE4LjA5OS0xOC4wOVY3Mi40YzAtMTIuMDAxLTYuMzIyLTE3Ljg4Mi0xOC4wOTktMTguMDltMjM1LjI5OC05LjA2YzAtMzAuMDAzLTE1LjgwOC00NC43MDUtNDUuMjUtNDUuMjI1VjBINzIuMzk5di4wMjVDNDIuOTU3LjU0NSAyNy4xNSAxNS4yNDcgMjcuMTUgNDUuMjV2LjAxNWMxNy42NjUuMzEyIDI3LjE0OSA5LjEzMyAyNy4xNDkgMjcuMTM1IDAgMTguMDAxIDkuNDg1IDI2LjgyMyAyNy4xNSAyNy4xMzV2LjAxNWgxMjYuNjk5di0uMDE1YzE3LjY2Ni0uMzEyIDI3LjE1LTkuMTM0IDI3LjE1LTI3LjEzNSAwLTE4LjAwMiA5LjQ4NC0yNi44MjMgMjcuMTUtMjcuMTM1eiIgY2xpcC1wYXRoPSJ1cmwoI2IpIi8+PC9zdmc+;" parent="8EW6fI2R_Ii0T-t069nl-21" vertex="1">
          <mxGeometry width="82.5" height="55" as="geometry" />
        </mxCell>
        <mxCell id="8EW6fI2R_Ii0T-t069nl-34" value="" style="group;strokeColor=#9673a6;fillColor=#e1d5e7;" parent="1" vertex="1" connectable="0">
          <mxGeometry x="60" y="380" width="100" height="141" as="geometry" />
        </mxCell>
        <mxCell id="8EW6fI2R_Ii0T-t069nl-18" value="" style="group" parent="8EW6fI2R_Ii0T-t069nl-34" vertex="1" connectable="0">
          <mxGeometry width="100" height="91" as="geometry" />
        </mxCell>
        <mxCell id="8EW6fI2R_Ii0T-t069nl-4" value="gossip messages" style="shape=datastore;whiteSpace=wrap;html=1;" parent="8EW6fI2R_Ii0T-t069nl-18" vertex="1">
          <mxGeometry x="22" width="60" height="60" as="geometry" />
        </mxCell>
        <mxCell id="8EW6fI2R_Ii0T-t069nl-17" value="" style="group" parent="8EW6fI2R_Ii0T-t069nl-18" vertex="1" connectable="0">
          <mxGeometry y="61" width="100" height="30" as="geometry" />
        </mxCell>
        <mxCell id="8EW6fI2R_Ii0T-t069nl-15" value="" style="rounded=0;whiteSpace=wrap;html=1;fillColor=#999999;" parent="8EW6fI2R_Ii0T-t069nl-17" vertex="1">
          <mxGeometry width="100" height="30" as="geometry" />
        </mxCell>
        <mxCell id="8EW6fI2R_Ii0T-t069nl-16" value="" style="shape=image;verticalLabelPosition=bottom;labelBackgroundColor=default;verticalAlign=top;aspect=fixed;imageAspect=0;image=data:image/svg+xml,PHN2ZyB4bWxuczp4bGluaz0iaHR0cDovL3d3dy53My5vcmcvMTk5OS94bGluayIgeG1sbnM9Imh0dHA6Ly93d3cudzMub3JnLzIwMDAvc3ZnIiB2aWV3Qm94PSIwIDAgOTUgMjMiPjxzdHlsZT5AbWVkaWEgKHByZWZlcnMtY29sb3Itc2NoZW1lOmRhcmspe3BhdGgjdGV4dHtmaWxsOiNmZmZ9fTwvc3R5bGU+PGRlZnM+PHBhdGggZD0iTTAgMGg5NXYyM0gweiIgZmlsbC1vcGFjaXR5PSIuNiIgaWQ9ImEiLz48L2RlZnM+PGRlZnM+PGxpbmVhckdyYWRpZW50IGdyYWRpZW50VW5pdHM9InVzZXJTcGFjZU9uVXNlIiBncmFkaWVudFRyYW5zZm9ybT0ic2NhbGUoLjA4MDU4IC4wODEyNykiIHkyPSIyMi42NDYiIHkxPSIyODMuMzE2IiB4Mj0iNzIuMTE0IiB4MT0iMzIzLjc5NSIgaWQ9ImYiPjxzdG9wIHN0b3AtY29sb3I9IiM4OTJjNmMiIG9mZnNldD0iMCIvPjxzdG9wIHN0b3AtY29sb3I9IiNkMTQ2NzEiIG9mZnNldD0iMSIvPjwvbGluZWFyR3JhZGllbnQ+PGxpbmVhckdyYWRpZW50IGdyYWRpZW50VW5pdHM9InVzZXJTcGFjZU9uVXNlIiBncmFkaWVudFRyYW5zZm9ybT0ic2NhbGUoLjA4MDU4IC4wODEyNykiIHkyPSIyNzkuNDY0IiB5MT0iMTcuNTEiIHgyPSIzMTguNjU4IiB4MT0iNTcuOTg4IiBpZD0iZyI+PHN0b3Agc3RvcC1jb2xvcj0iI2MzNDE3MCIgb2Zmc2V0PSIwIi8+PHN0b3Agc3RvcC1jb2xvcj0iIzhiMmM2YyIgb2Zmc2V0PSIxIi8+PC9saW5lYXJHcmFkaWVudD48bGluZWFyR3JhZGllbnQgZ3JhZGllbnRVbml0cz0idXNlclNwYWNlT25Vc2UiIGdyYWRpZW50VHJhbnNmb3JtPSJzY2FsZSguMDgwNTggLjA4MTI3KSIgeTI9IjE3LjUxMiIgeTE9IjI3Ni44OTgiIHgyPSI0Ni40MzIiIHgxPSIzMTIuMjM4IiBpZD0iaSI+PHN0b3Agc3RvcC1jb2xvcj0iIzg4MmI2YiIgb2Zmc2V0PSIwIi8+PHN0b3Agc3RvcC1jb2xvcj0iI2NmNDY3MSIgb2Zmc2V0PSIxIi8+PC9saW5lYXJHcmFkaWVudD48bGluZWFyR3JhZGllbnQgZ3JhZGllbnRVbml0cz0idXNlclNwYWNlT25Vc2UiIGdyYWRpZW50VHJhbnNmb3JtPSJzY2FsZSguMDgwNTggLjA4MTI3KSIgeTI9Ijg5LjU3NiIgeTE9IjE5Mi4zODEiIHgyPSI3MC45NzMiIHgxPSIzNC43MTMiIGlkPSJkIj48c3RvcCBzdG9wLW9wYWNpdHk9Ii4zOCIgc3RvcC1jb2xvcj0iI2ZmZiIgb2Zmc2V0PSIwIi8+PHN0b3Agc3RvcC1vcGFjaXR5PSIuMDEyIiBzdG9wLWNvbG9yPSIjZmZmIiBvZmZzZXQ9Ii44NiIvPjxzdG9wIHN0b3Atb3BhY2l0eT0iMCIgc3RvcC1jb2xvcj0iI2ZmZiIgb2Zmc2V0PSIxIi8+PC9saW5lYXJHcmFkaWVudD48Y2xpcFBhdGggaWQ9ImUiPjxwYXRoIGQ9Ik0uMDE2LjA2NkgxOXYyMi45MjJILjAxNnptMCAwIi8+PC9jbGlwUGF0aD48Y2xpcFBhdGggaWQ9ImgiPjxwYXRoIGQ9Ik04IDExaDE4LjM1MnYxMS45ODhIOHptMCAwIi8+PC9jbGlwUGF0aD48Y2xpcFBhdGggaWQ9ImoiPjxwYXRoIGQ9Ik0uMDE2LjA2NmgyNi4zMzZ2MjIuOTIySC4wMTZ6bTAgMCIvPjwvY2xpcFBhdGg+PGNsaXBQYXRoIGlkPSJjIj48dXNlIHhsaW5rOmhyZWY9IiNhIi8+PC9jbGlwUGF0aD48ZmlsdGVyIGZpbHRlclVuaXRzPSJvYmplY3RCb3VuZGluZ0JveCIgeT0iMCUiIHg9IjAlIiBoZWlnaHQ9IjEwMCUiIHdpZHRoPSIxMDAlIiBpZD0iYiI+PGZlQ29sb3JNYXRyaXggdmFsdWVzPSIwIDAgMCAwIDEgMCAwIDAgMCAxIDAgMCAwIDAgMSAwIDAgMCAxIDAiIGluPSJTb3VyY2VHcmFwaGljIi8+PC9maWx0ZXI+PG1hc2sgaWQ9ImsiPjxnIGZpbHRlcj0idXJsKCNiKSI+PHVzZSB4bGluazpocmVmPSIjYSIgZmlsbC1vcGFjaXR5PSIuNiIvPjwvZz48L21hc2s+PGcgY2xpcC1wYXRoPSJ1cmwoI2MpIiBpZD0ibCI+PHBhdGggZD0iTTEuNTQzIDUuODA5Yy0yLjc5MyA4LjAyIDUuNTUgMTEuMzY3IDUuNTUgMTEuMzY3LS44OTQtLjY2LTIuMDExLTIuMjA3LTIuMzQ3LTMuMzEzLS43MDctMi4yODEtLjQ4NC00LjA4Mi42NzItNi4wNyIgZmlsbD0idXJsKCNkKSIvPjwvZz48L2RlZnM+PHBhdGggZmlsbD0iIzAwMCIgZD0iTTc5LjI5IDE3LjEzN2MzLjU5MyAwIDUuNzIyLTIuMjUgNS43MjItNS45ODkgMC0zLjcyMi0yLjEzLTUuOTY0LTUuNjQtNS45NjRoLTQuMDc1djExLjk1M3ptLTEuODYtMS44NzFWNy4wNTloMS44MmMyLjM5NSAwIDMuNjQgMS4zNTUgMy42NCA0LjA5IDAgMi43NS0xLjI0NSA0LjExNy0zLjcwMyA0LjExN3ptOC43NzcgMS44N2g0Ljc3YzIuNjk5IDAgNC4wMjMtMS4zOTQgNC4wMjMtMy4yNTMgMC0xLjgwOS0xLjI2Ni0yLjg3MS0yLjUyLTIuOTM4di0uMTE3YzEuMTQ5LS4yNzMgMi4wNi0xLjA5IDIuMDYtMi41NDMgMC0xLjc4MS0xLjI2Ny0zLjEwMS0zLjgyMS0zLjEwMWgtNC41MTJ6bTIuMTMzLTEuODA4di0zLjVoMi4zNTVjMS4zMTcgMCAyLjEzMy44MTcgMi4xMzMgMS44ODMgMCAuOTUzLS42NDQgMS42MTctMi4xOTEgMS42MTd6bTAtNS4wNThWNi45NzNoMi4xNmMxLjI1NCAwIDEuOTA2LjY2OCAxLjkwNiAxLjU5MyAwIDEuMDQ3LS44NDQgMS43MDQtMS45NTMgMS43MDR6bS00Ny43MTkuOTA2YzAtMy43ODUtMi4yNzctNi4wMTYtNS4zMDUtNi4wMTYtMy4wMyAwLTUuMzA0IDIuMjMtNS4zMDQgNi4wMTYgMCAzLjc3NyAyLjI3MyA2LjAxMiA1LjMwNCA2LjAxMi43MzUgMCAxLjQyMi0uMTMzIDIuMDQ3LS4zODNsLjk1MyAxLjIyNmgyLjAyOGwtMS42MDItMi4wNzhjMS4xNi0xLjAzMSAxLjg4LTIuNjYgMS44OC00Ljc3N3ptLTYuMDE2IDEuOTE4bDEuNTYzIDIuMDgyYTMuMiAzLjIgMCAwMS0uODUyLjExYy0xLjg3OSAwLTMuMjAzLTEuNDUtMy4yMDMtNC4xMSAwLTIuNjY0IDEuMzI1LTQuMTEzIDMuMjAzLTQuMTEzIDEuODgzIDAgMy4yMDQgMS40NDkgMy4yMDQgNC4xMTMgMCAxLjQzNy0uMzg3IDIuNTItMS4wNCAzLjIxbC0uOTgtMS4yOTJ6bTEyLjc1LjA4NmMwIDEuMzM2LS45NCAyLTEuODQzIDItLjk4IDAtMS42MzMtLjcwMy0xLjYzMy0xLjgyVjguMDloLTIuMDR2NS41OWMwIDIuMTEgMS4xNjUgMy4zNjcgMi44NjggMy4zNjcgMS4yOTcgMCAyLjIyNy0uNzU0IDIuNjIxLTEuNzM4aC4wOXYxLjczOGgxLjk3N1Y4LjA5aC0yLjA0em03LjQ1IDQuMDJjMi4wMiAwIDMuNDA2LTEgMy43NjUtMi41MjhsLTEuOTA2LS4yMTljLS4yNzMuNzQ2LS45NTMgMS4xMzMtMS44MzIgMS4xMzMtMS4zMTYgMC0yLjE5MS0uODc5LTIuMjA3LTIuMzgzaDYuMDMxdi0uNjMzYzAtMy4wODItMS44MjgtNC40MzctMy45NTctNC40MzctMi40OCAwLTQuMDk3IDEuODQ3LTQuMDk3IDQuNTU0IDAgMi43NTggMS41OTMgNC41MTIgNC4yMDMgNC41MTJ6bS0yLjE3Ni01LjM5MWMuMDYyLTEuMTIxLjg3OS0yLjA2MyAyLjA5OC0yLjA2MyAxLjE3MSAwIDEuOTYuODY3IDEuOTcyIDIuMDYzem0xNC4zMTYtMS4yNDNjLS4yOC0xLjQ4NC0xLjQ1My0yLjQzMy0zLjQ4LTIuNDMzLTIuMDg2IDAtMy41MDggMS4wMzktMy41IDIuNjY0LS4wMDggMS4yODEuNzcgMi4xMjUgMi40MzMgMi40NzZsMS40NzcuMzEzYy43OTcuMTc2IDEuMTY4LjUwNCAxLjE2OCAxIDAgLjYwMi0uNjQ1IDEuMDUtMS42MTMgMS4wNS0uOTM0IDAtMS41NDMtLjQxLTEuNzItMS4xOThsLTEuOTg3LjE5NWMuMjU0IDEuNjEgMS41OSAyLjU2NiAzLjcxNSAyLjU2NiAyLjE2NCAwIDMuNjktMS4xMzYgMy42OTUtMi44LS4wMDQtMS4yNTQtLjgwMS0yLjAyLTIuNDM0LTIuMzhsLTEuNDc2LS4zMmMtLjg4LS4xOTktMS4yMy0uNTA4LTEuMjIzLTEuMDE1LS4wMDgtLjU5NC42NC0xLjAwOCAxLjQ5Mi0xLjAwOC45NDIgMCAxLjQzOC41MiAxLjU5NCAxLjA5N3ptNi4yMTUtMi4zMmgtMS43MVY2LjE0NWgtMi4wNHYyLjEwMWgtMS4yMjZ2MS42MDJoMS4yMjZ2NC44ODJjLS4wMTIgMS42NTMgMS4xNzIgMi40NjEgMi43MDcgMi40MTguNTc4LS4wMi45OC0uMTMyIDEuMi0uMjA3bC0uMzQ0LTEuNjE3YTIuNjA0IDIuNjA0IDAgMDEtLjU5OC4wNzhjLS41MTIgMC0uOTI2LS4xOC0uOTI2LTEuMDE1di00LjU0aDEuNzExem0wIDAiIGlkPSJ0ZXh0Ii8+PGcgY2xpcC1wYXRoPSJ1cmwoI2UpIj48cGF0aCBkPSJNNC4zMzYgMTEuNTA4YzAtMy45NzMgMy4yNDItNy4xNzIgNy4yNjYtNy4xNzIgMS40NTMgMCAyLjc5My40MDIgMy45MSAxLjE0bDMuMTI5LTMuMDU0QTExLjYzIDExLjYzIDAgMDAxMS42LjA2NkM1LjE5Ni4wNjYuMDE3IDUuMTguMDE3IDExLjUwOGMwIDYuMzMyIDUuMTggMTEuNDQ1IDExLjU4NiAxMS40NDV2LTQuMjdjLTQuMDI0IDAtNy4yNjYtMy4xOTktNy4yNjYtNy4xNzV6bTAgMCIgZmlsbD0idXJsKCNmKSIvPjwvZz48cGF0aCBkPSJNMTguODYzIDExLjUwOGg0LjMyYzAtMy4wMTYtMS4xOS01Ljc3NC0zLjEyOC03LjgzNkwxNyA2LjY5MmE3LjE5MiA3LjE5MiAwIDAxMS44NjMgNC44MTZ6bTAgMCIgZmlsbD0idXJsKCNnKSIvPjxnIGNsaXAtcGF0aD0idXJsKCNoKSI+PHBhdGggZD0iTTE1LjE0IDExLjg3OUg4Ljc3bDExLjI1IDExLjExIDYuMzMyLS4wMzZ6bTAgMCIgZmlsbD0idXJsKCNpKSIvPjwvZz48ZyBjbGlwLXBhdGg9InVybCgjaikiPjx1c2UgeGxpbms6aHJlZj0iI2wiIG1hc2s9InVybCgjaykiLz48L2c+PC9zdmc+;" parent="8EW6fI2R_Ii0T-t069nl-17" vertex="1">
          <mxGeometry x="2.5" y="3.5" width="95" height="23" as="geometry" />
        </mxCell>
        <mxCell id="8EW6fI2R_Ii0T-t069nl-27" value="Tables indexed by timestamp" style="text;html=1;align=center;verticalAlign=middle;whiteSpace=wrap;rounded=0;" parent="8EW6fI2R_Ii0T-t069nl-34" vertex="1">
          <mxGeometry x="10" y="91" width="80" height="50" as="geometry" />
        </mxCell>
        <mxCell id="8EW6fI2R_Ii0T-t069nl-35" value="" style="group;strokeColor=#9673a6;fillColor=#e1d5e7;" parent="1" vertex="1" connectable="0">
          <mxGeometry x="60" y="606" width="100" height="120" as="geometry" />
        </mxCell>
        <mxCell id="8EW6fI2R_Ii0T-t069nl-26" value="Buckets storing data of LNs" style="text;html=1;align=center;verticalAlign=middle;whiteSpace=wrap;rounded=0;" parent="8EW6fI2R_Ii0T-t069nl-35" vertex="1">
          <mxGeometry x="10" y="70" width="80" height="50" as="geometry" />
        </mxCell>
        <mxCell id="8EW6fI2R_Ii0T-t069nl-29" value="" style="group" parent="8EW6fI2R_Ii0T-t069nl-35" vertex="1" connectable="0">
          <mxGeometry width="100" height="60.00000000000006" as="geometry" />
        </mxCell>
        <mxCell id="8EW6fI2R_Ii0T-t069nl-8" value="LNs" style="shape=datastore;whiteSpace=wrap;html=1;" parent="8EW6fI2R_Ii0T-t069nl-29" vertex="1">
          <mxGeometry x="40" width="60" height="60" as="geometry" />
        </mxCell>
        <mxCell id="8EW6fI2R_Ii0T-t069nl-25" value="" style="group" parent="8EW6fI2R_Ii0T-t069nl-29" vertex="1" connectable="0">
          <mxGeometry y="5.684341886080802e-14" width="30" height="60" as="geometry" />
        </mxCell>
        <mxCell id="8EW6fI2R_Ii0T-t069nl-24" value="" style="rounded=0;whiteSpace=wrap;html=1;fillColor=#999999;" parent="8EW6fI2R_Ii0T-t069nl-25" vertex="1">
          <mxGeometry width="30" height="60" as="geometry" />
        </mxCell>
        <mxCell id="8EW6fI2R_Ii0T-t069nl-23" value="" style="shape=image;verticalLabelPosition=bottom;labelBackgroundColor=default;verticalAlign=top;aspect=fixed;imageAspect=0;image=data:image/svg+xml,PHN2ZyB4bWxucz0iaHR0cDovL3d3dy53My5vcmcvMjAwMC9zdmciIHZpZXdCb3g9IjAgMCAzNjEuNzYgNzMxLjg1IiBkYXRhLW5hbWU9IkxheWVyIDEiIGlkPSJMYXllcl8xIj48ZGVmcz48c3R5bGU+LmNscy0xe2ZpbGw6I2M2MmQ0OTt9PC9zdHlsZT48L2RlZnM+PHRpdGxlPm1pbmlvX2xvZ288L3RpdGxlPjxwYXRoIHRyYW5zZm9ybT0idHJhbnNsYXRlKC0xOTQuMTIgLTkuMDcpIiBkPSJNMTk0LjEyLDUyNGMyLTguNTIsMy43OS0xNy4xLDYuMDgtMjUuNTVhNDM4LjUxLDQzOC41MSwwLDAsMSw2MS42LTEzMi44YzQyLTYxLjU4LDk2LjM2LTEwOS40MiwxNjIuMjMtMTQ0LjIzLjgzLS40NCwxLjY5LS44NCwyLjczLTEuMzYuNzMsMS4yOC40MywyLjU3LjQzLDMuNzdxMCw2NS4zMSwwLDEzMC42M2MwLDQuNDEuMjYsNC41Nyw0LjIzLDIuNzZhODcuNTIsODcuNTIsMCwwLDAsNTEuNS04My41LDg0LjksODQuOSwwLDAsMC0yMi44OC01NC45MWMtMTkuOTEtMjEuNzQtNDAuNjktNDIuNjctNjEuMDUtNjQtMTMuOTEtMTQuNTctMjguMzQtMjguNjctNDEuMTktNDQuMjItOS41My0xMS41NC0xNS4wOC0yNC44MS0xNC42Ni0zOS44N0MzNDMuODMsNDYuODYsMzU1LjA2LDI5LDM3NS42MywxN2E1NS43Niw1NS43NiwwLDAsMSwyMi4wOC03LjM4LDMuNjQsMy42NCwwLDAsMCwxLjA3LS41MmgxNC44YzIuODQuNzMsNS43MSwxLjM3LDguNTIsMi4xOSwxNy45NSw1LjI0LDMxLjcsMTYuMiw0Mi4yNSwzMS4zNSwxNi40OCwyMy42NiwzMC43Nyw0OC43MSw0NS44Nyw3My4yNCwxNC40OCwyMy41MywyOC42OSw0Ny4yNCw0Myw3MC44NWExOS43OCwxOS43OCwwLDAsMSwyLjM4LDUuNThjLjIuOC41NywxLjYzLS40NSwyLjI3cy0xLjU4LS4wNi0yLjI0LS41OGMtNC43Ni0zLjcxLTguNTctOC4zOS0xMi43My0xMi43MXEtMzQuMS0zNS40Ni02OC4xLTcxYy0xNi43MS0xNy4zOC0zMi42NS0zNS41MS00OS45Mi01Mi4zNi01LjU3LTUuNDQtMTItOC42NC0yMC03LjEzLTguMywxLjU3LTEzLjg1LDYuNzUtMTYuNTgsMTQuNTQtMi44NCw4LjExLS4xOCwxNS4yNyw1LjQ4LDIxLjI1LDE1LjQ4LDE2LjM1LDMxLjEyLDMyLjU1LDQ2LjY4LDQ4LjgxLDE3Ljg2LDE4LjY2LDM2LjEsMzcsNTMuNDksNTYuMDgsNDYuODcsNTEuNDcsNDMuMjQsMTMyLjE2LTcuNjQsMTc5LjY1LTExLjgxLDExLTI1LjU0LDE5LTM5Ljg3LDI2LjE3LTQuNjksMi4zNS05LjI2LDQuOTUtMTQsNy4xNS0yLjI5LDEuMDYtMi41NywyLjU3LTIuNTcsNC43OHEuMDcsMTEwLjA2LDAsMjIwLjA5VjczOC4zNWMwLC44Ni0uMDcsMS43Mi0uMSwyLjU4aC0uNjVjMC0uOS0uNzQtMS4yNi0xLjI0LTEuNzYtMTIuOTQtMTMuMTQtMjUuODYtMjYuMy0zOC45MS0zOS4zM2E4LjY3LDguNjcsMCwwLDEtMi43NS02Ljc1cS4xLTEzMCwuMDYtMjYwdi00LjQ0Yy0xLjQ1LjY1LTIuNTEsMS4wOC0zLjU0LDEuNmwtMzUuNzgsMTguMTdMMTk3LjEyLDUyMy4xN0MxOTYuMTcsNTIzLjY1LDE5NS4yOCw1MjQuMzEsMTk0LjEyLDUyNFpNMjY1LDQ0MmMuNzguNDcsMS4yLjA2LDEuNjUtLjE4LDM2LjU1LTE4LjgxLDczLjA2LTM3LjcsMTA5LjY4LTU2LjM2LDUuMTEtMi42LDgtNS44Miw3LjI5LTExLjY5YTE1LjU0LDE1LjU0LDAsMCwxLDAtMS45M1YzMDAuNzJjMC0uODUsMC0xLjcyLDAtMi41Ny0uMTItMS4yMy0uNjMtMS44NS0xLjg1LS45MS0uNi40Ni0xLjE5LjkxLTEuNzgsMS4zOEE0MDYuODYsNDA2Ljg2LDAsMCwwLDI4MC42OSw0MTIuN0MyNzUuMDgsNDIyLjI3LDI2OS44LDQzMiwyNjUsNDQyWiIgY2xhc3M9ImNscy0xIi8+PC9zdmc+;" parent="8EW6fI2R_Ii0T-t069nl-25" vertex="1">
          <mxGeometry y="4" width="25.71" height="52" as="geometry" />
        </mxCell>
        <mxCell id="8EW6fI2R_Ii0T-t069nl-36" value="" style="endArrow=none;dashed=1;html=1;dashPattern=1 3;strokeWidth=2;rounded=0;entryX=0.25;entryY=0;entryDx=0;entryDy=0;exitX=0.25;exitY=1;exitDx=0;exitDy=0;" parent="1" source="8EW6fI2R_Ii0T-t069nl-6" target="8EW6fI2R_Ii0T-t069nl-6" edge="1">
          <mxGeometry width="50" height="50" relative="1" as="geometry">
            <mxPoint x="438" y="200" as="sourcePoint" />
            <mxPoint x="488" y="170" as="targetPoint" />
          </mxGeometry>
        </mxCell>
        <mxCell id="8EW6fI2R_Ii0T-t069nl-37" value="" style="endArrow=none;dashed=1;html=1;dashPattern=1 3;strokeWidth=2;rounded=0;entryX=0.75;entryY=0;entryDx=0;entryDy=0;exitX=0.75;exitY=1;exitDx=0;exitDy=0;" parent="1" source="8EW6fI2R_Ii0T-t069nl-6" target="8EW6fI2R_Ii0T-t069nl-6" edge="1">
          <mxGeometry width="50" height="50" relative="1" as="geometry">
            <mxPoint x="750" y="470" as="sourcePoint" />
            <mxPoint x="752" y="70" as="targetPoint" />
          </mxGeometry>
        </mxCell>
        <mxCell id="8EW6fI2R_Ii0T-t069nl-55" style="edgeStyle=orthogonalEdgeStyle;rounded=0;orthogonalLoop=1;jettySize=auto;html=1;exitX=0;exitY=0.5;exitDx=0;exitDy=0;entryX=1;entryY=0.5;entryDx=0;entryDy=0;" parent="1" source="8EW6fI2R_Ii0T-t069nl-38" target="8EW6fI2R_Ii0T-t069nl-15" edge="1">
          <mxGeometry relative="1" as="geometry" />
        </mxCell>
        <mxCell id="8EW6fI2R_Ii0T-t069nl-66" style="edgeStyle=orthogonalEdgeStyle;rounded=0;orthogonalLoop=1;jettySize=auto;html=1;entryX=0;entryY=0.5;entryDx=0;entryDy=0;" parent="1" source="8EW6fI2R_Ii0T-t069nl-38" target="8EW6fI2R_Ii0T-t069nl-44" edge="1">
          <mxGeometry relative="1" as="geometry" />
        </mxCell>
        <mxCell id="8EW6fI2R_Ii0T-t069nl-38" value="LN-history.Data" style="rounded=1;whiteSpace=wrap;html=1;" parent="1" vertex="1">
          <mxGeometry x="220" y="426" width="120" height="60" as="geometry" />
        </mxCell>
        <mxCell id="8EW6fI2R_Ii0T-t069nl-53" style="edgeStyle=orthogonalEdgeStyle;rounded=0;orthogonalLoop=1;jettySize=auto;html=1;entryX=1;entryY=0.5;entryDx=0;entryDy=0;" parent="1" source="8EW6fI2R_Ii0T-t069nl-40" target="8EW6fI2R_Ii0T-t069nl-19" edge="1">
          <mxGeometry relative="1" as="geometry" />
        </mxCell>
        <mxCell id="8EW6fI2R_Ii0T-t069nl-59" style="edgeStyle=orthogonalEdgeStyle;rounded=0;orthogonalLoop=1;jettySize=auto;html=1;entryX=0;entryY=0.5;entryDx=0;entryDy=0;" parent="1" source="8EW6fI2R_Ii0T-t069nl-40" target="8EW6fI2R_Ii0T-t069nl-47" edge="1">
          <mxGeometry relative="1" as="geometry" />
        </mxCell>
        <mxCell id="8EW6fI2R_Ii0T-t069nl-40" value="Bitcoin.Data" style="rounded=1;whiteSpace=wrap;html=1;" parent="1" vertex="1">
          <mxGeometry x="240" y="160" width="120" height="40" as="geometry" />
        </mxCell>
        <mxCell id="8EW6fI2R_Ii0T-t069nl-41" value="LN-history Architecture" style="text;strokeColor=none;fillColor=none;html=1;fontSize=24;fontStyle=1;verticalAlign=middle;align=center;" parent="1" vertex="1">
          <mxGeometry x="403" y="-40" width="350" height="30" as="geometry" />
        </mxCell>
        <mxCell id="8EW6fI2R_Ii0T-t069nl-42" value="" style="shape=image;verticalLabelPosition=bottom;labelBackgroundColor=default;verticalAlign=top;aspect=fixed;imageAspect=0;image=data:image/svg+xml,PHN2ZyB4bWxucz0iaHR0cDovL3d3dy53My5vcmcvMjAwMC9zdmciIGZpbGw9Im5vbmUiIHZpZXdCb3g9IjAgMCA0NTYgNDU2IiBoZWlnaHQ9IjQ1NiIgd2lkdGg9IjQ1NiI+JiN4YTs8cmVjdCBmaWxsPSIjNTEyQkQ0IiBoZWlnaHQ9IjQ1NiIgd2lkdGg9IjQ1NiIvPiYjeGE7PHBhdGggZmlsbD0id2hpdGUiIGQ9Ik04MS4yNzM4IDI5MS4zMzNDNzguMDQ5NiAyOTEuMzMzIDc1LjMwOSAyOTAuMjU5IDczLjA1MiAyODguMTFDNzAuNzk1IDI4NS45MDYgNjkuNjY2NSAyODMuMjg5IDY5LjY2NjUgMjgwLjI1OUM2OS42NjY1IDI3Ny4xNzMgNzAuNzk1IDI3NC41MjkgNzMuMDUyIDI3Mi4zMjVDNzUuMzA5IDI3MC4xMjEgNzguMDQ5NiAyNjkuMDE5IDgxLjI3MzggMjY5LjAxOUM4NC41NTE4IDI2OS4wMTkgODcuMzE5MyAyNzAuMTIxIDg5LjU3NjMgMjcyLjMyNUM5MS44ODcgMjc0LjUyOSA5My4wNDI0IDI3Ny4xNzMgOTMuMDQyNCAyODAuMjU5QzkzLjA0MjQgMjgzLjI4OSA5MS44ODcgMjg1LjkwNiA4OS41NzYzIDI4OC4xMUM4Ny4zMTkzIDI5MC4yNTkgODQuNTUxOCAyOTEuMzMzIDgxLjI3MzggMjkxLjMzM1oiLz4mI3hhOzxwYXRoIGZpbGw9IndoaXRlIiBkPSJNMjEwLjE2NyAyODkuNTE1SDE4OS4yMDlMMTMzLjk5NCAyMDIuNDA2QzEzMi41OTcgMjAwLjIwMiAxMzEuNDQxIDE5Ny45MTUgMTMwLjUyOCAxOTUuNTQ2SDEzMC4wNDRDMTMwLjQ3NCAxOTguMDgxIDEzMC42ODkgMjAzLjUwOCAxMzAuNjg5IDIxMS44MjdWMjg5LjUxNUgxMTIuMTQ5VjE3MUgxMzQuNDc3TDE4Ny44MzkgMjU2LjA0M0MxOTAuMDk2IDI1OS41NyAxOTEuNTQ3IDI2MS45OTQgMTkyLjE5MiAyNjMuMzE2SDE5Mi41MTRDMTkxLjk3NyAyNjAuMTc2IDE5MS43MDggMjU0Ljg1OSAxOTEuNzA4IDI0Ny4zNjVWMTcxSDIxMC4xNjdWMjg5LjUxNVoiLz4mI3hhOzxwYXRoIGZpbGw9IndoaXRlIiBkPSJNMzAwLjQ0OSAyODkuNTE1SDIzNS41NjFWMTcxSDI5Ny44N1YxODcuNjk1SDI1NC43NDZWMjIxLjI0OUgyOTQuNDg1VjIzNy44NjFIMjU0Ljc0NlYyNzIuOTAzSDMwMC40NDlWMjg5LjUxNVoiLz4mI3hhOzxwYXRoIGZpbGw9IndoaXRlIiBkPSJNMzkyLjY2NyAxODcuNjk1SDM1OS40NTdWMjg5LjUxNUgzNDAuMjcyVjE4Ny42OTVIMzA3LjE0M1YxNzFIMzkyLjY2N1YxODcuNjk1WiIvPiYjeGE7PC9zdmc+;" parent="1" vertex="1">
          <mxGeometry x="450" y="10" width="48.5" height="48.5" as="geometry" />
        </mxCell>
        <mxCell id="8EW6fI2R_Ii0T-t069nl-43" value="" style="shape=image;verticalLabelPosition=bottom;labelBackgroundColor=default;verticalAlign=top;aspect=fixed;imageAspect=0;image=data:image/svg+xml,PHN2ZyB4bWxuczp4bGluaz0iaHR0cDovL3d3dy53My5vcmcvMTk5OS94bGluayIgeG1sbnM9Imh0dHA6Ly93d3cudzMub3JnLzIwMDAvc3ZnIiBwcmVzZXJ2ZUFzcGVjdFJhdGlvPSJ4TWlkWU1pZCIgdmVyc2lvbj0iMS4xIiB2aWV3Qm94PSIwIDAgMjU2IDI4OCIgaGVpZ2h0PSIyODhweCIgd2lkdGg9IjI1NnB4Ij4mI3hhOyAgICA8Zz4mI3hhOyAgICAgICAgPHBhdGggZmlsbC1ydWxlPSJub256ZXJvIiBmaWxsPSIjQTE3OURDIiBkPSJNMjU1LjU2OSw4NC40NTIzNzYgQzI1NS41NjcsNzkuNjIyMzc2IDI1NC41MzQsNzUuMzU0Mzc2IDI1Mi40NDUsNzEuNjkxMzc2IEMyNTAuMzkzLDY4LjA4OTM3NiAyNDcuMzIsNjUuMDcwMzc2IDI0My4xOTgsNjIuNjgzMzc2IEMyMDkuMTczLDQzLjA2NDM3NiAxNzUuMTE1LDIzLjUwNTM3NiAxNDEuMTAxLDMuODY2Mzc2MDUgQzEzMS45MzEsLTEuNDI3NjIzOTUgMTIzLjA0LC0xLjIzNDYyMzk1IDExMy45MzgsNC4xMzUzNzYwNSBDMTAwLjM5NSwxMi4xMjIzNzYgMzIuNTksNTAuOTY5Mzc2IDEyLjM4NSw2Mi42NzIzNzYgQzQuMDY0LDY3LjQ4OTM3NiAwLjAxNSw3NC44NjEzNzYgMC4wMTMsODQuNDQzMzc2IEMwLDEyMy44OTgzNzYgMC4wMTMsMTYzLjM1MjM3NiAwLDIwMi44MDgzNzYgQzAsMjA3LjUzMjM3NiAwLjk5MSwyMTEuNzE3Mzc2IDIuOTg4LDIxNS4zMjUzNzYgQzUuMDQxLDIxOS4wMzYzNzYgOC4xNTcsMjIyLjEzODM3NiAxMi4zNzQsMjI0LjU3OTM3NiBDMzIuNTgsMjM2LjI4MjM3NiAxMDAuMzk0LDI3NS4xMjYzNzYgMTEzLjkzNCwyODMuMTE1Mzc2IEMxMjMuMDQsMjg4LjQ4ODM3NiAxMzEuOTMxLDI4OC42ODAzNzYgMTQxLjEwNCwyODMuMzg0Mzc2IEMxNzUuMTE5LDI2My43NDQzNzYgMjA5LjE3OSwyNDQuMTg2Mzc2IDI0My4yMDksMjI0LjU2NzM3NiBDMjQ3LjQyNiwyMjIuMTI3Mzc2IDI1MC41NDIsMjE5LjAyMzM3NiAyNTIuNTk1LDIxNS4zMTUzNzYgQzI1NC41ODksMjExLjcwNzM3NiAyNTUuNTgyLDIwNy41MjIzNzYgMjU1LjU4MiwyMDIuNzk3Mzc2IEMyNTUuNTgyLDIwMi43OTczNzYgMjU1LjU4MiwxMjMuOTA4Mzc2IDI1NS41NjksODQuNDUyMzc2Ii8+JiN4YTsgICAgICAgIDxwYXRoIGZpbGwtcnVsZT0ibm9uemVybyIgZmlsbD0iIzI4MDA2OCIgZD0iTTEyOC4xODIsMTQzLjI0MTM3NiBMMi45ODgsMjE1LjMyNTM3NiBDNS4wNDEsMjE5LjAzNjM3NiA4LjE1NywyMjIuMTM4Mzc2IDEyLjM3NCwyMjQuNTc5Mzc2IEMzMi41OCwyMzYuMjgyMzc2IDEwMC4zOTQsMjc1LjEyNjM3NiAxMTMuOTM0LDI4My4xMTUzNzYgQzEyMy4wNCwyODguNDg4Mzc2IDEzMS45MzEsMjg4LjY4MDM3NiAxNDEuMTA0LDI4My4zODQzNzYgQzE3NS4xMTksMjYzLjc0NDM3NiAyMDkuMTc5LDI0NC4xODYzNzYgMjQzLjIwOSwyMjQuNTY3Mzc2IEMyNDcuNDI2LDIyMi4xMjczNzYgMjUwLjU0MiwyMTkuMDIzMzc2IDI1Mi41OTUsMjE1LjMxNTM3NiBMMTI4LjE4MiwxNDMuMjQxMzc2Ii8+JiN4YTsgICAgICAgIDxwYXRoIGZpbGwtcnVsZT0ibm9uemVybyIgZmlsbD0iIzM5MDA5MSIgZD0iTTI1NS41NjksODQuNDUyMzc2IEMyNTUuNTY3LDc5LjYyMjM3NiAyNTQuNTM0LDc1LjM1NDM3NiAyNTIuNDQ1LDcxLjY5MTM3NiBMMTI4LjE4MiwxNDMuMjQxMzc2IEwyNTIuNTk1LDIxNS4zMTUzNzYgQzI1NC41ODksMjExLjcwNzM3NiAyNTUuNTgsMjA3LjUyMjM3NiAyNTUuNTgyLDIwMi43OTczNzYgQzI1NS41ODIsMjAyLjc5NzM3NiAyNTUuNTgyLDEyMy45MDgzNzYgMjU1LjU2OSw4NC40NTIzNzYiLz4mI3hhOyAgICAgICAgPHBhdGggZmlsbD0iI0ZGRkZGRiIgZD0iTTIwMS44OTIzMjYsMTE2LjI5NDAwOCBMMjAxLjg5MjMyNiwxMjkuNzY3NjkyIEwyMTUuMzY2MDEsMTI5Ljc2NzY5MiBMMjE1LjM2NjAxLDExNi4yOTQwMDggTDIyMi4xMDI4NTIsMTE2LjI5NDAwOCBMMjIyLjEwMjg1MiwxMjkuNzY3NjkyIEwyMzUuNTc2NTM3LDEyOS43Njc2OTIgTDIzNS41NzY1MzcsMTM2LjUwNDUzNCBMMjIyLjEwMjg1MiwxMzYuNTA0NTM0IEwyMjIuMTAyODUyLDE0OS45NzgyMTggTDIzNS41NzY1MzcsMTQ5Ljk3ODIxOCBMMjM1LjU3NjUzNywxNTYuNzE1MDYgTDIyMi4xMDI4NTIsMTU2LjcxNTA2IEwyMjIuMTAyODUyLDE3MC4xODg3NDQgTDIxNS4zNjYwMSwxNzAuMTg4NzQ0IEwyMTUuMzY2MDEsMTU2LjcxNTA2IEwyMDEuODkyMzI2LDE1Ni43MTUwNiBMMjAxLjg5MjMyNiwxNzAuMTg4NzQ0IEwxOTUuMTU1NDg0LDE3MC4xODg3NDQgTDE5NS4xNTU0ODQsMTU2LjcxNTA2IEwxODEuNjgxOCwxNTYuNzE1MDYgTDE4MS42ODE4LDE0OS45NzgyMTggTDE5NS4xNTU0ODQsMTQ5Ljk3ODIxOCBMMTk1LjE1NTQ4NCwxMzYuNTA0NTM0IEwxODEuNjgxOCwxMzYuNTA0NTM0IEwxODEuNjgxOCwxMjkuNzY3NjkyIEwxOTUuMTU1NDg0LDEyOS43Njc2OTIgTDE5NS4xNTU0ODQsMTE2LjI5NDAwOCBMMjAxLjg5MjMyNiwxMTYuMjk0MDA4IFogTTIxNS4zNjYwMSwxMzYuNTA0NTM0IEwyMDEuODkyMzI2LDEzNi41MDQ1MzQgTDIwMS44OTIzMjYsMTQ5Ljk3ODIxOCBMMjE1LjM2NjAxLDE0OS45NzgyMTggTDIxNS4zNjYwMSwxMzYuNTA0NTM0IFoiLz4mI3hhOyAgICAgICAgPHBhdGggZmlsbC1ydWxlPSJub256ZXJvIiBmaWxsPSIjRkZGRkZGIiBkPSJNMTI4LjQ1Njc1Miw0OC42MjU4NzYgQzE2My42MDA1MjMsNDguNjI1ODc2IDE5NC4yODM4ODUsNjcuNzEyMTc0MSAyMTAuNzE4NTYyLDk2LjA4MTk0MzUgTDIxMC41NTgxOTIsOTUuODA4ODc2IEwxNjkuMjA5NjE1LDExOS42MTcxNTkgQzE2MS4wNjI5NTksMTA1LjgyMzU1NCAxNDYuMTI4MTM2LDk2LjUxNTA3MTcgMTI4Ljk5NjM4Myw5Ni4zMjMzNzIyIEwxMjguNDU2NzUyLDk2LjMyMDM1NDQgQzEwMi4zMzExNzgsOTYuMzIwMzU0NCA4MS4xNTA2NzA1LDExNy40OTk3NDMgODEuMTUwNjcwNSwxNDMuNjI1MzE2IEM4MS4xNTA2NzA1LDE1Mi4xNjg5MzEgODMuNDI4NDQ1MywxNjAuMTc3NTIgODcuMzg5NjQ2OSwxNjcuMDk0NzkyIEM5NS41NDM3NDUsMTgxLjMzMDA0NSAxMTAuODcyNTU0LDE5MC45MzEzOTggMTI4LjQ1Njc1MiwxOTAuOTMxMzk4IEMxNDYuMTQ5NTIyLDE5MC45MzEzOTggMTYxLjU2NTYzNiwxODEuMjA4MDQxIDE2OS42NzgzMiwxNjYuODIwNTYzIEwxNjkuNDgxMTkyLDE2Ny4xNjU4NzYgTDIxMC43Njc2NzgsMTkxLjA4MzkxMyBDMTk0LjUxMzI4LDIxOS4yMTM0NyAxNjQuMjUwMjcsMjM4LjI0MDg2MSAxMjkuNTE0OTc3LDIzOC42MjAxMDIgTDEyOC40NTY3NTIsMjM4LjYyNTg3NiBDOTMuMjAyMTcwMSwyMzguNjI1ODc2IDYyLjQzMTUwMjgsMjE5LjQyMjA1MiA0Ni4wMzgyMzk4LDE5MC45MDIyOTYgQzM4LjAzNTI0NzEsMTc2Ljk3OTMyNyAzMy40NTYxOTIyLDE2MC44Mzc5MDcgMzMuNDU2MTkyMiwxNDMuNjI1MzE2IEMzMy40NTYxOTIyLDkxLjE1OTI2MzYgNzUuOTg4NDYwNCw0OC42MjU4NzYgMTI4LjQ1Njc1Miw0OC42MjU4NzYgWiIvPiYjeGE7ICAgIDwvZz4mI3hhOzwvc3ZnPg==;" parent="1" vertex="1">
          <mxGeometry x="650" y="5.5" width="51.11" height="57.5" as="geometry" />
        </mxCell>
        <mxCell id="8EW6fI2R_Ii0T-t069nl-61" style="edgeStyle=orthogonalEdgeStyle;rounded=0;orthogonalLoop=1;jettySize=auto;html=1;entryX=0;entryY=0.5;entryDx=0;entryDy=0;" parent="1" source="8EW6fI2R_Ii0T-t069nl-44" target="8EW6fI2R_Ii0T-t069nl-49" edge="1">
          <mxGeometry relative="1" as="geometry">
            <Array as="points">
              <mxPoint x="760" y="460" />
              <mxPoint x="760" y="390" />
            </Array>
          </mxGeometry>
        </mxCell>
        <mxCell id="8EW6fI2R_Ii0T-t069nl-65" style="edgeStyle=orthogonalEdgeStyle;rounded=0;orthogonalLoop=1;jettySize=auto;html=1;entryX=1;entryY=0.5;entryDx=0;entryDy=0;" parent="1" source="8EW6fI2R_Ii0T-t069nl-44" target="8EW6fI2R_Ii0T-t069nl-38" edge="1">
          <mxGeometry relative="1" as="geometry" />
        </mxCell>
        <mxCell id="8EW6fI2R_Ii0T-t069nl-67" style="edgeStyle=orthogonalEdgeStyle;rounded=0;orthogonalLoop=1;jettySize=auto;html=1;entryX=0.193;entryY=0.004;entryDx=0;entryDy=0;exitX=0.193;exitY=0.993;exitDx=0;exitDy=0;exitPerimeter=0;entryPerimeter=0;" parent="1" source="8EW6fI2R_Ii0T-t069nl-44" target="8EW6fI2R_Ii0T-t069nl-46" edge="1">
          <mxGeometry relative="1" as="geometry">
            <mxPoint x="539.66" y="510" as="sourcePoint" />
            <mxPoint x="539.66" y="606" as="targetPoint" />
          </mxGeometry>
        </mxCell>
        <mxCell id="8EW6fI2R_Ii0T-t069nl-44" value="LN-history.Core" style="rounded=1;whiteSpace=wrap;html=1;" parent="1" vertex="1">
          <mxGeometry x="518.25" y="426" width="120" height="60" as="geometry" />
        </mxCell>
        <mxCell id="8EW6fI2R_Ii0T-t069nl-92" style="edgeStyle=orthogonalEdgeStyle;rounded=0;orthogonalLoop=1;jettySize=auto;html=1;entryX=0.5;entryY=0;entryDx=0;entryDy=0;exitX=0;exitY=0.5;exitDx=0;exitDy=0;" parent="1" source="8EW6fI2R_Ii0T-t069nl-45" target="8EW6fI2R_Ii0T-t069nl-44" edge="1">
          <mxGeometry relative="1" as="geometry" />
        </mxCell>
        <mxCell id="8EW6fI2R_Ii0T-t069nl-45" value="LN-history.Model" style="rounded=1;whiteSpace=wrap;html=1;" parent="1" vertex="1">
          <mxGeometry x="600" y="270" width="120" height="60" as="geometry" />
        </mxCell>
        <mxCell id="8EW6fI2R_Ii0T-t069nl-68" style="edgeStyle=orthogonalEdgeStyle;rounded=0;orthogonalLoop=1;jettySize=auto;html=1;entryX=0.192;entryY=1.007;entryDx=0;entryDy=0;entryPerimeter=0;exitX=0.177;exitY=-0.003;exitDx=0;exitDy=0;exitPerimeter=0;" parent="1" source="8EW6fI2R_Ii0T-t069nl-46" target="8EW6fI2R_Ii0T-t069nl-44" edge="1">
          <mxGeometry relative="1" as="geometry">
            <mxPoint x="539.92" y="510" as="targetPoint" />
            <mxPoint x="539.66" y="606" as="sourcePoint" />
            <Array as="points">
              <mxPoint x="541" y="606" />
              <mxPoint x="541" y="546" />
              <mxPoint x="541" y="546" />
            </Array>
          </mxGeometry>
        </mxCell>
        <mxCell id="8EW6fI2R_Ii0T-t069nl-72" style="edgeStyle=orthogonalEdgeStyle;rounded=0;orthogonalLoop=1;jettySize=auto;html=1;entryX=1;entryY=0.5;entryDx=0;entryDy=0;exitX=0;exitY=0.5;exitDx=0;exitDy=0;" parent="1" source="8EW6fI2R_Ii0T-t069nl-46" target="8EW6fI2R_Ii0T-t069nl-8" edge="1">
          <mxGeometry relative="1" as="geometry" />
        </mxCell>
        <mxCell id="8EW6fI2R_Ii0T-t069nl-46" value="LN-history.Cache" style="rounded=1;whiteSpace=wrap;html=1;" parent="1" vertex="1">
          <mxGeometry x="518" y="606" width="120" height="60" as="geometry" />
        </mxCell>
        <mxCell id="8EW6fI2R_Ii0T-t069nl-57" style="edgeStyle=orthogonalEdgeStyle;rounded=0;orthogonalLoop=1;jettySize=auto;html=1;entryX=0;entryY=0.5;entryDx=0;entryDy=0;" parent="1" source="8EW6fI2R_Ii0T-t069nl-47" target="8EW6fI2R_Ii0T-t069nl-49" edge="1">
          <mxGeometry relative="1" as="geometry">
            <Array as="points">
              <mxPoint x="760" y="180" />
              <mxPoint x="760" y="390" />
            </Array>
          </mxGeometry>
        </mxCell>
        <mxCell id="8EW6fI2R_Ii0T-t069nl-58" style="edgeStyle=orthogonalEdgeStyle;rounded=0;orthogonalLoop=1;jettySize=auto;html=1;entryX=1;entryY=0.5;entryDx=0;entryDy=0;" parent="1" source="8EW6fI2R_Ii0T-t069nl-47" target="8EW6fI2R_Ii0T-t069nl-40" edge="1">
          <mxGeometry relative="1" as="geometry" />
        </mxCell>
        <mxCell id="8EW6fI2R_Ii0T-t069nl-47" value="Bitcoin.Core" style="rounded=1;whiteSpace=wrap;html=1;" parent="1" vertex="1">
          <mxGeometry x="518" y="160" width="120" height="40" as="geometry" />
        </mxCell>
        <mxCell id="8EW6fI2R_Ii0T-t069nl-63" style="edgeStyle=orthogonalEdgeStyle;rounded=0;orthogonalLoop=1;jettySize=auto;html=1;entryX=0.5;entryY=0;entryDx=0;entryDy=0;exitX=1;exitY=0.5;exitDx=0;exitDy=0;" parent="1" source="8EW6fI2R_Ii0T-t069nl-48" target="8EW6fI2R_Ii0T-t069nl-44" edge="1">
          <mxGeometry relative="1" as="geometry" />
        </mxCell>
        <mxCell id="8EW6fI2R_Ii0T-t069nl-48" value="LightningGraph" style="rounded=1;whiteSpace=wrap;html=1;" parent="1" vertex="1">
          <mxGeometry x="406.5" y="270" width="120" height="60" as="geometry" />
        </mxCell>
        <mxCell id="8EW6fI2R_Ii0T-t069nl-56" style="edgeStyle=orthogonalEdgeStyle;rounded=0;orthogonalLoop=1;jettySize=auto;html=1;entryX=1;entryY=0.5;entryDx=0;entryDy=0;" parent="1" source="8EW6fI2R_Ii0T-t069nl-49" target="8EW6fI2R_Ii0T-t069nl-47" edge="1">
          <mxGeometry relative="1" as="geometry">
            <Array as="points">
              <mxPoint x="760" y="390" />
              <mxPoint x="760" y="180" />
            </Array>
          </mxGeometry>
        </mxCell>
        <mxCell id="8EW6fI2R_Ii0T-t069nl-60" style="edgeStyle=orthogonalEdgeStyle;rounded=0;orthogonalLoop=1;jettySize=auto;html=1;" parent="1" source="8EW6fI2R_Ii0T-t069nl-49" edge="1">
          <mxGeometry relative="1" as="geometry">
            <mxPoint x="638" y="460" as="targetPoint" />
            <Array as="points">
              <mxPoint x="760" y="390" />
              <mxPoint x="760" y="460" />
              <mxPoint x="638" y="460" />
            </Array>
          </mxGeometry>
        </mxCell>
        <mxCell id="8EW6fI2R_Ii0T-t069nl-77" style="edgeStyle=orthogonalEdgeStyle;rounded=0;orthogonalLoop=1;jettySize=auto;html=1;" parent="1" source="8EW6fI2R_Ii0T-t069nl-49" target="8EW6fI2R_Ii0T-t069nl-73" edge="1">
          <mxGeometry relative="1" as="geometry" />
        </mxCell>
        <mxCell id="8EW6fI2R_Ii0T-t069nl-49" value="LN-history.Api" style="rounded=1;whiteSpace=wrap;html=1;" parent="1" vertex="1">
          <mxGeometry x="810" y="360" width="120" height="60" as="geometry" />
        </mxCell>
        <mxCell id="8EW6fI2R_Ii0T-t069nl-80" style="edgeStyle=orthogonalEdgeStyle;rounded=0;orthogonalLoop=1;jettySize=auto;html=1;entryX=1;entryY=0.5;entryDx=0;entryDy=0;exitX=0.5;exitY=1;exitDx=0;exitDy=0;exitPerimeter=0;" parent="1" source="8EW6fI2R_Ii0T-t069nl-50" target="8EW6fI2R_Ii0T-t069nl-49" edge="1">
          <mxGeometry relative="1" as="geometry" />
        </mxCell>
        <mxCell id="8EW6fI2R_Ii0T-t069nl-52" style="edgeStyle=orthogonalEdgeStyle;rounded=0;orthogonalLoop=1;jettySize=auto;html=1;entryX=0;entryY=0.5;entryDx=0;entryDy=0;" parent="1" source="8EW6fI2R_Ii0T-t069nl-19" target="8EW6fI2R_Ii0T-t069nl-40" edge="1">
          <mxGeometry relative="1" as="geometry" />
        </mxCell>
        <mxCell id="8EW6fI2R_Ii0T-t069nl-54" style="edgeStyle=orthogonalEdgeStyle;rounded=0;orthogonalLoop=1;jettySize=auto;html=1;entryX=0;entryY=0.5;entryDx=0;entryDy=0;" parent="1" source="8EW6fI2R_Ii0T-t069nl-15" target="8EW6fI2R_Ii0T-t069nl-38" edge="1">
          <mxGeometry relative="1" as="geometry" />
        </mxCell>
        <mxCell id="8EW6fI2R_Ii0T-t069nl-71" style="edgeStyle=orthogonalEdgeStyle;rounded=0;orthogonalLoop=1;jettySize=auto;html=1;entryX=0;entryY=0.5;entryDx=0;entryDy=0;" parent="1" source="8EW6fI2R_Ii0T-t069nl-8" target="8EW6fI2R_Ii0T-t069nl-46" edge="1">
          <mxGeometry relative="1" as="geometry" />
        </mxCell>
        <mxCell id="8EW6fI2R_Ii0T-t069nl-78" style="edgeStyle=orthogonalEdgeStyle;rounded=0;orthogonalLoop=1;jettySize=auto;html=1;entryX=1;entryY=0.5;entryDx=0;entryDy=0;" parent="1" source="8EW6fI2R_Ii0T-t069nl-73" target="8EW6fI2R_Ii0T-t069nl-49" edge="1">
          <mxGeometry relative="1" as="geometry" />
        </mxCell>
        <mxCell id="8EW6fI2R_Ii0T-t069nl-75" style="edgeStyle=orthogonalEdgeStyle;rounded=0;orthogonalLoop=1;jettySize=auto;html=1;entryX=1;entryY=0.5;entryDx=0;entryDy=0;exitX=0.5;exitY=0;exitDx=0;exitDy=0;exitPerimeter=0;" parent="1" source="8EW6fI2R_Ii0T-t069nl-74" target="8EW6fI2R_Ii0T-t069nl-49" edge="1">
          <mxGeometry relative="1" as="geometry" />
        </mxCell>
        <mxCell id="8EW6fI2R_Ii0T-t069nl-74" value="" style="outlineConnect=0;dashed=0;verticalLabelPosition=bottom;verticalAlign=top;align=center;html=1;shape=mxgraph.aws3.management_console;fillColor=#D2D3D3;gradientColor=none;" parent="1" vertex="1">
          <mxGeometry x="1010" y="458" width="63" height="63" as="geometry" />
        </mxCell>
        <mxCell id="8EW6fI2R_Ii0T-t069nl-76" style="edgeStyle=orthogonalEdgeStyle;rounded=0;orthogonalLoop=1;jettySize=auto;html=1;entryX=0.5;entryY=0;entryDx=0;entryDy=0;entryPerimeter=0;" parent="1" source="8EW6fI2R_Ii0T-t069nl-49" target="8EW6fI2R_Ii0T-t069nl-74" edge="1">
          <mxGeometry relative="1" as="geometry" />
        </mxCell>
        <mxCell id="8EW6fI2R_Ii0T-t069nl-79" style="edgeStyle=orthogonalEdgeStyle;rounded=0;orthogonalLoop=1;jettySize=auto;html=1;entryX=0.5;entryY=1;entryDx=0;entryDy=0;entryPerimeter=0;" parent="1" source="8EW6fI2R_Ii0T-t069nl-49" target="8EW6fI2R_Ii0T-t069nl-50" edge="1">
          <mxGeometry relative="1" as="geometry" />
        </mxCell>
        <mxCell id="8EW6fI2R_Ii0T-t069nl-83" value="" style="shape=image;verticalLabelPosition=bottom;labelBackgroundColor=default;verticalAlign=top;aspect=fixed;imageAspect=0;image=data:image/svg+xml,PHN2ZyB4bWxuczp4bGluaz0iaHR0cDovL3d3dy53My5vcmcvMTk5OS94bGluayIgeG1sbnM9Imh0dHA6Ly93d3cudzMub3JnLzIwMDAvc3ZnIiB4bWw6c3BhY2U9InByZXNlcnZlIiBzdHlsZT0iZW5hYmxlLWJhY2tncm91bmQ6bmV3IDAgMCAxMjIuODggMTAwLjMzIiB2aWV3Qm94PSIwIDAgMTIyLjg4IDEwMC4zMyIgeT0iMHB4IiB4PSIwcHgiIGlkPSJMYXllcl8xIiB2ZXJzaW9uPSIxLjEiPjxzdHlsZSB0eXBlPSJ0ZXh0L2NzcyI+JiN4YTsJLnN0MHtmaWxsLXJ1bGU6ZXZlbm9kZDtjbGlwLXJ1bGU6ZXZlbm9kZDt9JiN4YTs8L3N0eWxlPjxnPjxwYXRoIGQ9Ik0xMDIuNzksNy4xMWwyLjU5LDMuNDFjMC42OCwwLjksMC41MSwyLjE5LTAuMzksMi44N2wtMi43NSwyLjA5YzAuNSwxLjMzLDAuODIsMi43NSwwLjk1LDQuMmwzLjEzLDAuNDMgYzEuMTIsMC4xNSwxLjksMS4xOSwxLjc1LDIuMzFsLTAuNTgsNC4yNWMtMC4xNSwxLjEyLTEuMTksMS45MS0yLjMxLDEuNzVsLTMuNDItMC40N2MtMC42MSwxLjMzLTEuMzksMi41NS0yLjMxLDMuNjRsMS45MiwyLjUyIGMwLjY4LDAuOSwwLjUsMi4xOS0wLjQsMi44N2wtMy40MSwyLjU5Yy0wLjksMC42OC0yLjE5LDAuNS0yLjg3LTAuMzlsLTIuMDktMi43NWMtMS4zNCwwLjUtMi43NSwwLjgyLTQuMjEsMC45NWwtMC40MywzLjEzIGMtMC4xNSwxLjEyLTEuMTksMS45LTIuMzEsMS43NWwtNC4yNS0wLjU4Yy0xLjEyLTAuMTUtMS45LTEuMTktMS43NS0yLjMxbDAuNDctMy40MmMtMS4zMi0wLjYxLTIuNTUtMS4zOS0zLjY0LTIuM2wtMi41MiwxLjkxIGMtMC45LDAuNjgtMi4xOSwwLjUxLTIuODctMC4zOWwtMi41OS0zLjQxYy0wLjY4LTAuOS0wLjUxLTIuMTksMC4zOS0yLjg3bDIuNzUtMi4wOWMtMC41LTEuMzQtMC44Mi0yLjc1LTAuOTUtNC4ybC0zLjEzLTAuNDMgYy0xLjEyLTAuMTUtMS45MS0xLjE5LTEuNzUtMi4zMWwwLjU4LTQuMjVjMC4xNi0xLjEyLDEuMTktMS45LDIuMzEtMS43NWwzLjQyLDAuNDdjMC42MS0xLjMyLDEuMzktMi41NSwyLjMtMy42NGwtMS45MS0yLjUyIEM3MS44Myw3LjI4LDcyLDUuOTksNzIuOSw1LjMxbDMuNDEtMi41OWMwLjktMC42OCwyLjE5LTAuNTEsMi44NywwLjM5bDIuMDksMi43NWMxLjMzLTAuNSwyLjc1LTAuODIsNC4yLTAuOTVsMC40My0zLjEzIGMwLjE1LTEuMTIsMS4xOS0xLjkxLDIuMzEtMS43Nmw0LjI1LDAuNThjMS4xMiwwLjE1LDEuOTEsMS4xOSwxLjc1LDIuMzFsLTAuNDcsMy40MmMxLjMzLDAuNjEsMi41NSwxLjM5LDMuNjUsMi4zMWwyLjUyLTEuOTEgQzEwMC44MSw2LjA0LDEwMi4xLDYuMjEsMTAyLjc5LDcuMTFMMTAyLjc5LDcuMTFMMTAyLjc5LDcuMTF6IE0yOS42Nyw2Ny4xMnYtMTYuNWg4LjVjMS41OCwwLDIuNzgsMC4xMywzLjYxLDAuNDEgYzAuODMsMC4yNywxLjUxLDAuNzcsMi4wMSwxLjVjMC41MSwwLjc0LDAuNzcsMS42MywwLjc3LDIuNjhjMCwwLjkxLTAuMiwxLjcxLTAuNTksMi4zN2MtMC4zOSwwLjY3LTAuOTMsMS4yMS0xLjYxLDEuNjIgYy0wLjQzLDAuMjYtMS4wMywwLjQ4LTEuNzksMC42NWMwLjYxLDAuMjEsMS4wNSwwLjQsMS4zMiwwLjYxYzAuMTksMC4xNCwwLjQ2LDAuNDMsMC44MSwwLjg3YzAuMzUsMC40NCwwLjU5LDAuNzksMC43MSwxLjAzIGwyLjQ4LDQuNzdoLTUuNzZsLTIuNzItNS4wM2MtMC4zNS0wLjY1LTAuNjUtMS4wOC0wLjkyLTEuMjdjLTAuMzctMC4yNS0wLjc5LTAuMzgtMS4yNS0wLjM4aC0wLjQ1djYuNjhIMjkuNjdMMjkuNjcsNjcuMTJ6IE00Ny42NSw5NS44NWgtOS41MmwtMS4zNyw0LjQ4aC04LjU4bDEwLjIzLTI3LjE5aDkuMmwxMC4xOSwyNy4xOWgtOC44TDQ3LjY1LDk1Ljg1TDQ3LjY1LDk1Ljg1eiBNNDUuODcsODkuOTZsLTIuOTctOS43OCBsLTIuOTgsOS43OEg0NS44N0w0NS44Nyw4OS45NnogTTU5Ljc4LDczLjE0aDEzLjk4YzMuMDUsMCw1LjMzLDAuNzIsNi44NCwyLjE3YzEuNTEsMS40NSwyLjI3LDMuNTIsMi4yNyw2LjE5IGMwLDIuNzUtMC44Myw0LjktMi40OCw2LjQ1Yy0xLjY1LDEuNTUtNC4xOCwyLjMyLTcuNTcsMi4zMmgtNC42MXYxMC4wNmgtOC40M1Y3My4xNEw1OS43OCw3My4xNHogTTY4LjIxLDg0Ljc2aDIuMDcgYzEuNjMsMCwyLjc4LTAuMjgsMy40NC0wLjg1YzAuNjYtMC41NiwwLjk5LTEuMjksMC45OS0yLjE2YzAtMC44NS0wLjI5LTEuNTgtMC44Ni0yLjE3Yy0wLjU3LTAuNTktMS42NS0wLjg5LTMuMjMtMC44OWgtMi40MSBWODQuNzZMNjguMjEsODQuNzZ6IE04Ni4yNyw3My4xNGg4LjQzdjI3LjE5aC04LjQzVjczLjE0TDg2LjI3LDczLjE0eiBNMzQuNzksNTcuMzJoMi4xNWMwLjIzLDAsMC42OC0wLjA4LDEuMzUtMC4yMyBjMC4zNC0wLjA3LDAuNjItMC4yNCwwLjgzLTAuNTJjMC4yMi0wLjI4LDAuMzItMC42LDAuMzItMC45NmMwLTAuNTMtMC4xNy0wLjk1LTAuNTEtMS4yM2MtMC4zNC0wLjI5LTAuOTctMC40My0xLjktMC40M2gtMi4yNCBWNTcuMzJMMzQuNzksNTcuMzJ6IE00Ni44Nyw1MC42MmgxMy42NXYzLjUyaC04LjUzdjIuNjNoNy45MXYzLjM2aC03LjkxdjMuMjVoOC43OHYzLjczaC0xMy45VjUwLjYyTDQ2Ljg3LDUwLjYyeiBNNjEuOTgsNjEuNjYgbDQuODQtMC4zYzAuMSwwLjc5LDAuMzIsMS4zOCwwLjY0LDEuNzljMC41MywwLjY2LDEuMjgsMSwyLjI1LDFjMC43MiwwLDEuMjktMC4xNywxLjY4LTAuNTFjMC4zOS0wLjM0LDAuNTktMC43NCwwLjU5LTEuMTkgYzAtMC40My0wLjE5LTAuODEtMC41Ni0xLjE1Yy0wLjM3LTAuMzQtMS4yNC0wLjY1LTIuNjEtMC45NmMtMi4yMy0wLjUtMy44Mi0xLjE3LTQuNzgtMmMtMC45Ni0wLjgzLTEuNDQtMS44OS0xLjQ0LTMuMTggYzAtMC44NSwwLjI1LTEuNjUsMC43NC0yLjRjMC40OS0wLjc1LDEuMjMtMS4zNSwyLjIyLTEuNzhjMC45OS0wLjQzLDIuMzQtMC42NCw0LjA2LTAuNjRjMi4xMSwwLDMuNzEsMC4zOSw0LjgyLDEuMTggYzEuMSwwLjc5LDEuNzYsMi4wMywxLjk3LDMuNzVsLTQuNzksMC4yOWMtMC4xMy0wLjc1LTAuNC0xLjMtMC44LTEuNjNjLTAuNDEtMC4zNC0wLjk4LTAuNTEtMS42OS0wLjUxIGMtMC41OSwwLTEuMDQsMC4xMy0xLjM0LDAuMzhjLTAuMywwLjI1LTAuNDUsMC41Ni0wLjQ1LDAuOTJjMCwwLjI2LDAuMTMsMC40OSwwLjM3LDAuNzFjMC4yNCwwLjIxLDAuOCwwLjQyLDEuNywwLjYxIGMyLjIzLDAuNDgsMy44MywwLjk3LDQuNzksMS40NmMwLjk2LDAuNDksMS42NywxLjEsMi4xLDEuODNjMC40NCwwLjcyLDAuNjYsMS41NCwwLjY2LDIuNDRjMCwxLjA2LTAuMjksMi4wMy0wLjg4LDIuOTIgYy0wLjU4LDAuODktMS40LDEuNTctMi40NSwyLjAzYy0xLjA1LDAuNDYtMi4zNywwLjY5LTMuOTcsMC42OWMtMi44LDAtNC43NS0wLjU0LTUuODMtMS42MkM2Mi43NCw2NC42OSw2Mi4xMyw2My4zMiw2MS45OCw2MS42NiBMNjEuOTgsNjEuNjZ6IE03Ny42OSw1MC42MmgxNS41MXY0LjA4SDg4djEyLjQySDgyLjlWNTQuN2gtNS4yMVY1MC42Mkw3Ny42OSw1MC42MnogTTYwLjUzLDExLjQ2Yy0xLjgzLTAuMTQtMy42OC0wLjEyLTUuNTEsMC4wNiBjLTUuNjMsMC41NC0xMS4xLDIuNTktMTUuNjIsNi4xYy01LjIzLDQuMDUtOS4yLDEwLjExLTEwLjczLDE4LjE0bC0wLjQ4LDIuNTFsLTIuNSwwLjQ0Yy0yLjQ1LDAuNDMtNC42NCwxLjAyLTYuNTYsMS43NyBjLTEuODYsMC43Mi0zLjUyLDEuNjEtNC45NywyLjY2Yy0xLjE2LDAuODQtMi4xNiwxLjc4LTMuMDEsMi44Yy0yLjYzLDMuMTUtMy44NSw3LjEtMy44MiwxMS4xYzAuMDMsNC4wNiwxLjM1LDguMTYsMy43OSwxMS41MyBjMC45MSwxLjI1LDEuOTYsMi40LDMuMTYsMy40YzEuMjIsMS4wMSwyLjU5LDEuODUsNC4xMywyLjQ4YzAuODcsMC4zNiwxLjgsMC42NiwyLjc3LDAuOXY3LjQ5Yy0yLTAuMzYtMy44NC0wLjktNS41Ni0xLjYxIGMtMi4yNy0wLjk0LTQuMjgtMi4xNS02LjA1LTMuNjNjLTEuNjgtMS40LTMuMTUtMi45OS00LjQtNC43MkMxLjg0LDY4LjI4LDAuMDQsNjIuNjYsMCw1Ny4wNmMtMC4wNC01LjY2LDEuNzItMTEuMjksNS41Mi0xNS44NSBjMS4yMy0xLjQ4LDIuNjgtMi44NCw0LjM0LTQuMDRjMS45My0xLjQsNC4xNC0yLjU4LDYuNjQtMy41NWMxLjcyLTAuNjcsMy41Ni0xLjIzLDUuNS0xLjY4YzIuMi04Ljc0LDYuODktMTUuNDcsMTIuOTItMjAuMTQgYzUuNjQtNC4zNywxMi40My02LjkyLDE5LjQyLTcuNTljMy42Ny0wLjM1LDcuMzktMC4xOSwxMS4wMywwLjQ5Yy0wLjA4LDAuMzMtMC4xNSwwLjY2LTAuMTksMWwtMC4wMSwwLjA2IGMtMC4wNywwLjU3LTAuMSwxLjE0LTAuMDcsMS43MmMtMC43NywwLjMtMS40OSwwLjcxLTIuMTQsMS4yMWwtMC4wMywwLjAyQzYxLjk2LDkuNDQsNjEuMTQsMTAuMzgsNjAuNTMsMTEuNDZMNjAuNTMsMTEuNDZ6IE0xMTMuNDQsMzAuNjZjMC41NiwwLjUxLDEuMSwxLjA0LDEuNjMsMS42MWMxLjA3LDEuMTUsMi4wOCwyLjQ1LDMuMDMsMy45YzMuMiw0LjkyLDQuODQsMTEuNDksNC43NywxNy45MiBjLTAuMDcsNi4zMS0xLjc3LDEyLjU5LTUuMjUsMTcuMjFjLTIuMjcsMy4wMS01LjE4LDUuNDctOC42Nyw3LjQyYy0yLjM5LDEuMzQtNS4wOCwyLjQ1LTguMDEsMy4zNXYtNy43NSBjMS41OC0wLjU5LDMuMDUtMS4yNSw0LjQtMmMyLjYzLTEuNDcsNC43OC0zLjI2LDYuMzktNS40MWMyLjUtMy4zMywzLjczLTguMDQsMy43OC0xMi44N2MwLjA2LTUuMDctMS4xOC0xMC4xNi0zLjU5LTEzLjg2IGMtMC42OS0xLjA3LTEuNDUtMi4wMy0yLjI1LTIuODljLTAuMzEtMC4zMy0wLjYyLTAuNjQtMC45NC0wLjk0YzAuMDUtMC41LDAuMDctMS4wMSwwLjA0LTEuNTJjMC43Ny0wLjMsMS40OS0wLjcxLDIuMTQtMS4yMSBsMC4wMy0wLjAyQzExMS45NywzMi44MSwxMTIuODMsMzEuODEsMTEzLjQ0LDMwLjY2TDExMy40NCwzMC42NnogTTg4LjA4LDEyLjhjNC42MSwwLjYzLDcuODMsNC44OCw3LjIsOS40OSBjLTAuNjMsNC42MS00Ljg4LDcuODQtOS40OSw3LjIxYy00LjYxLTAuNjMtNy44NC00Ljg4LTcuMi05LjQ5Qzc5LjIzLDE1LjQsODMuNDcsMTIuMTcsODguMDgsMTIuOEw4OC4wOCwxMi44TDg4LjA4LDEyLjh6IiBjbGFzcz0ic3QwIi8+PC9nPjwvc3ZnPg==;" parent="1" vertex="1">
          <mxGeometry x="838.64" y="300" width="62.73" height="51" as="geometry" />
        </mxCell>
        <mxCell id="8EW6fI2R_Ii0T-t069nl-84" value="" style="group;" parent="1" vertex="1" connectable="0">
          <mxGeometry x="984" y="240" width="63" height="63" as="geometry" />
        </mxCell>
        <mxCell id="8EW6fI2R_Ii0T-t069nl-50" value="" style="outlineConnect=0;dashed=0;verticalLabelPosition=bottom;verticalAlign=top;align=center;html=1;shape=mxgraph.aws3.management_console;fillColor=#D2D3D3;gradientColor=none;" parent="8EW6fI2R_Ii0T-t069nl-84" vertex="1">
          <mxGeometry width="63" height="63" as="geometry" />
        </mxCell>
        <mxCell id="8EW6fI2R_Ii0T-t069nl-81" value="" style="shape=image;verticalLabelPosition=bottom;labelBackgroundColor=default;verticalAlign=top;aspect=fixed;imageAspect=0;image=data:image/svg+xml,PHN2ZyB4bWxucz0iaHR0cDovL3d3dy53My5vcmcvMjAwMC9zdmciIHZpZXdCb3g9IjAgMCA2MzAgNjMwIj4mI3hhOzxyZWN0IGZpbGw9IiNmN2RmMWUiIGhlaWdodD0iNjMwIiB3aWR0aD0iNjMwIi8+JiN4YTs8cGF0aCBkPSJtNDIzLjIgNDkyLjE5YzEyLjY5IDIwLjcyIDI5LjIgMzUuOTUgNTguNCAzNS45NSAyNC41MyAwIDQwLjItMTIuMjYgNDAuMi0yOS4yIDAtMjAuMy0xNi4xLTI3LjQ5LTQzLjEtMzkuM2wtMTQuOC02LjM1Yy00Mi43Mi0xOC4yLTcxLjEtNDEtNzEuMS04OS4yIDAtNDQuNCAzMy44My03OC4yIDg2LjctNzguMiAzNy42NCAwIDY0LjcgMTMuMSA4NC4yIDQ3LjRsLTQ2LjEgMjkuNmMtMTAuMTUtMTguMi0yMS4xLTI1LjM3LTM4LjEtMjUuMzctMTcuMzQgMC0yOC4zMyAxMS0yOC4zMyAyNS4zNyAwIDE3Ljc2IDExIDI0Ljk1IDM2LjQgMzUuOTVsMTQuOCA2LjM0YzUwLjMgMjEuNTcgNzguNyA0My41NiA3OC43IDkzIDAgNTMuMy00MS44NyA4Mi41LTk4LjEgODIuNS01NC45OCAwLTkwLjUtMjYuMi0xMDcuODgtNjAuNTR6bS0yMDkuMTMgNS4xM2M5LjMgMTYuNSAxNy43NiAzMC40NSAzOC4xIDMwLjQ1IDE5LjQ1IDAgMzEuNzItNy42MSAzMS43Mi0zNy4ydi0yMDEuM2g1OS4ydjIwMi4xYzAgNjEuMy0zNS45NCA4OS4yLTg4LjQgODkuMi00Ny40IDAtNzQuODUtMjQuNTMtODguODEtNTQuMDc1eiIvPiYjeGE7PC9zdmc+;" parent="8EW6fI2R_Ii0T-t069nl-84" vertex="1">
          <mxGeometry x="16.75" y="6.5" width="23.5" height="23.5" as="geometry" />
        </mxCell>
        <mxCell id="8EW6fI2R_Ii0T-t069nl-87" value="" style="group;" parent="1" vertex="1" connectable="0">
          <mxGeometry x="1100" y="360" width="63" height="63" as="geometry" />
        </mxCell>
        <mxCell id="8EW6fI2R_Ii0T-t069nl-73" value="" style="outlineConnect=0;dashed=0;verticalLabelPosition=bottom;verticalAlign=top;align=center;html=1;shape=mxgraph.aws3.management_console;fillColor=#D2D3D3;gradientColor=none;" parent="8EW6fI2R_Ii0T-t069nl-87" vertex="1">
          <mxGeometry x="-20" width="63" height="63" as="geometry" />
        </mxCell>
        <mxCell id="8EW6fI2R_Ii0T-t069nl-86" value="" style="shape=image;verticalLabelPosition=bottom;labelBackgroundColor=default;verticalAlign=top;aspect=fixed;imageAspect=0;image=data:image/svg+xml,PHN2ZyB4bWxucz0iaHR0cDovL3d3dy53My5vcmcvMjAwMC9zdmciIGlkPSJzdmcwMSIgdmVyc2lvbj0iMS4xIiB2aWV3Qm94PSIwIDAgNjAwIDYwMCIgaGVpZ2h0PSI2MDAiIHdpZHRoPSI2MDAiPiYjeGE7ICA8ZGVmcyBpZD0iZGVmczAxIi8+JiN4YTsgICYjeGE7ICAgICYjeGE7ICAmI3hhOyAgPG1ldGFkYXRhIGlkPSJtZXRhZGF0YTAxIj4mI3hhOyAgICAmI3hhOyAgICAgICYjeGE7ICAgICAgICBpbWFnZS9zdmcreG1sJiN4YTsgICAgICAgICYjeGE7ICAgICAgICAmI3hhOyAgICAgICAgJiN4YTsgICAgICAmI3hhOyAgICAgICYjeGE7ICAgICAgICAmI3hhOyAgICAgICAgJiN4YTsgICAgICAgICYjeGE7ICAgICAgJiN4YTsgICAgJiN4YTsgIDwvbWV0YWRhdGE+JiN4YTsgIDxnIHN0eWxlPSJkaXNwbGF5OmlubGluZSIgaWQ9ImxheWVyMSI+JiN4YTsgICAgPHBhdGggc3R5bGU9ImZpbGw6IzM4N2ViODtmaWxsLW9wYWNpdHk6MSIgaWQ9InBhdGgxMDEiIGQ9Ik0gMzAwLDE5MCBIIDEyMCBjIDAsMCAtNTAsMCAtNTAsMTEwIDAsMTEwIDUwLDExMCA1MCwxMTAgaCA1MCBjIDAsMCAwLC0xMCAwLC01MCAwLC00MCAzMCwtNzAgNzAsLTcwIDQwLDAgODkuODY3NTUsMCAxMTkuOTMzNzcsMCBDIDM5MCwyOTAgNDEwLDI3MCA0MTAuNDEzOTEsMjM5LjUxOTg3IDQxMC44Mjc4MSwyMDkuMDM5NzQgNDEwLDEyMCA0MTAsMTIwIGMgMCwwIDAsLTUwIC0xMTAsLTUwIC0xMTAsMCAtMTEwLDUwIC0xMTAsNTAgdiA1MCBoIDExMCB6Ii8+JiN4YTsgICAgPHBhdGggc3R5bGU9ImZpbGw6I2ZmYzMzMTtmaWxsLW9wYWNpdHk6MSIgaWQ9InBhdGgxMDIiIGQ9Im0gMzAwLDQxMCBoIDE4MCBjIDAsMCA1MCwwIDUwLC0xMTAgMCwtMTEwIC01MCwtMTEwIC01MCwtMTEwIGggLTUwIGMgMCwwIDAsMTAgMCw1MCAwLDQwIC0zMCw3MCAtNzAsNzAgLTQwLDAgLTkwLDAgLTEyMCwwIC0zMCwwIC01MCwyMCAtNTAsNTAgMCwzMCAwLDEyMCAwLDEyMCAwLDAgMCw1MCAxMTAsNTAgMTEwLDAgMTEwLC01MCAxMTAsLTUwIFYgNDMwIEggMzAwIFoiLz4mI3hhOyAgICA8Y2lyY2xlIHN0eWxlPSJmaWxsOiNmZmZmZmY7ZmlsbC1vcGFjaXR5OjEiIHI9IjIwIiBjeT0iMTIwIiBjeD0iMjQwIiBpZD0icGF0aDEwMyIvPiYjeGE7ICAgIDxjaXJjbGUgc3R5bGU9ImZpbGw6I2ZmZmZmZjtmaWxsLW9wYWNpdHk6MSIgcj0iMjAiIGN5PSI0ODAiIGN4PSIzNjAiIGlkPSJwYXRoMTA0Ii8+JiN4YTsgIDwvZz4mI3hhOyAgPGcgc3R5bGU9ImRpc3BsYXk6bm9uZSIgaWQ9ImxheWVyMiI+JiN4YTsgICAgPHBhdGggc3R5bGU9ImRpc3BsYXk6aW5saW5lO2ZpbGw6IzM4N2ViODtmaWxsLW9wYWNpdHk6MSIgaWQ9InBhdGgyMDEiIGQ9Im0gMTIwLDE4MCBjIDAsMCAtNjAsMCAtNjAsMTIwIDAsMTIwIDYwLDEyMCA2MCwxMjAgaCA2MCBjIDAsMCAwLC0zMCAwLC02MCAwLC0zMCAyMCwtNjAgNjAsLTYwIDAsMCA4MCwwIDEyMCwwIDQwLDAgNTkuNTg2MDksLTI5LjUxOTg3IDYwLC02MCAwLjQxMzksLTMwLjQ4MDEzIDAsLTEyMCAwLC0xMjAgMCwwIDAuOTkzMzgsLTU4Ljk0MDM5NCAtMTIwLC01OS45OTk5OTcgQyAxNzkuMDA2NjIsNTguOTQwNCAxODAsMTIwIDE4MCwxMjAgdiA2MCB6Ii8+JiN4YTsgICAgPHBhdGggc3R5bGU9ImRpc3BsYXk6aW5saW5lO2ZpbGw6I2ZmYzMzMTtmaWxsLW9wYWNpdHk6MSIgaWQ9InBhdGgyMDIiIGQ9Im0gNDgwLDQyMCBjIDAsMCA2MS43OTE4MSwtMTIuMDU2MzggNjAuOTI3MTUsLTEyMi4wNTI5OCBDIDU0MCwxODAgNDgwLDE4MCA0ODAsMTgwIGggLTYwIHYgNjAgYyAwLDMwIC0yMCw2MCAtNjAsNjAgMCwwIC04MCwwIC0xMjAsMCAtNDAsMCAtNjAsMzAgLTYwLDYwIDAsMzAgMCwxMjAgMCwxMjAgMCwwIDEwLjAwMDA3LDU5Ljc0NjE0IDEyMCw1OS44Njc1NSBDIDQyMCw1NDAgNDIwLDQ4MCA0MjAsNDgwIHYgLTYwIHoiLz4mI3hhOyAgPC9nPiYjeGE7ICA8ZyBzdHlsZT0iZGlzcGxheTpub25lIiBpZD0ibGF5ZXIzIj4mI3hhOyAgICA8cGF0aCBpZD0icGF0aDMwMSIgZD0ibSAxODAsMTgwIHYgLTYwIGMgMCwwIDAsLTYwIDEyMCwtNjAgMTIwLDAgMTIwLDYwIDEyMCw2MCAwLDAgMCw4MCAwLDEyMCAwLDQwIC0zMCw2MCAtNjAsNjAgLTMwLDAgLTkwLDAgLTEyMCwwIC0zMCwwIC02MCwyMCAtNjAsNjAgMCw0MCAwLDEyMCAwLDEyMCAwLDAgMCw2MCAxMjAsNjAgMTIwLDAgMTIwLC02MCAxMjAsLTYwIHYgLTYwIiBzdHlsZT0iZmlsbDpub25lO2ZpbGwtcnVsZTpldmVub2RkO3N0cm9rZTojMDBmZjAwO3N0cm9rZS13aWR0aDoyMDtzdHJva2UtbGluZWNhcDpidXR0O3N0cm9rZS1saW5lam9pbjptaXRlcjtzdHJva2UtbWl0ZXJsaW1pdDo0O3N0cm9rZS1kYXNoYXJyYXk6bm9uZTtzdHJva2Utb3BhY2l0eToxIi8+JiN4YTsgICAgPHBhdGggaWQ9InBhdGgzMDIiIGQ9Ik0gMzAwLDE4MCBIIDEyMCBjIDAsMCAtNjAsMCAtNjAsMTIwIDAsMTIwIDYwLDEyMCA2MCwxMjAgaCA2MCIgc3R5bGU9ImZpbGw6bm9uZTtmaWxsLXJ1bGU6ZXZlbm9kZDtzdHJva2U6IzAwZmYwMDtzdHJva2Utd2lkdGg6MjA7c3Ryb2tlLWxpbmVjYXA6YnV0dDtzdHJva2UtbGluZWpvaW46bWl0ZXI7c3Ryb2tlLW1pdGVybGltaXQ6NDtzdHJva2UtZGFzaGFycmF5Om5vbmU7c3Ryb2tlLW9wYWNpdHk6MSIvPiYjeGE7ICAgIDxwYXRoIGlkPSJwYXRoMzAzIiBkPSJtIDQyMCwxODAgaCA2MCBjIDAsMCA2MCwwIDYwLDEyMCAwLDEyMCAtNjAsMTIwIC02MCwxMjAgSCAzMDAiIHN0eWxlPSJmaWxsOm5vbmU7ZmlsbC1ydWxlOmV2ZW5vZGQ7c3Ryb2tlOiMwMGZlMDA7c3Ryb2tlLXdpZHRoOjIwO3N0cm9rZS1saW5lY2FwOmJ1dHQ7c3Ryb2tlLWxpbmVqb2luOm1pdGVyO3N0cm9rZS1taXRlcmxpbWl0OjQ7c3Ryb2tlLWRhc2hhcnJheTpub25lO3N0cm9rZS1vcGFjaXR5OjEiLz4mI3hhOyAgICA8Y2lyY2xlIHI9IjIwIiBjeT0iMTIwIiBjeD0iMjQwIiBpZD0icGF0aDMwNCIgc3R5bGU9Im9wYWNpdHk6MTtmaWxsOiMwMGZmMDA7ZmlsbC1vcGFjaXR5OjE7c3Ryb2tlOm5vbmU7c3Ryb2tlLXdpZHRoOjIwO3N0cm9rZS1saW5lY2FwOnJvdW5kO3N0cm9rZS1saW5lam9pbjpyb3VuZDtzdHJva2UtbWl0ZXJsaW1pdDo0O3N0cm9rZS1kYXNoYXJyYXk6bm9uZTtzdHJva2Utb3BhY2l0eToxIi8+JiN4YTsgICAgPGNpcmNsZSByPSIyMCIgY3k9IjQ4MCIgY3g9IjM2MCIgaWQ9InBhdGgzMDUiIHN0eWxlPSJvcGFjaXR5OjE7ZmlsbDojMDBmZjAwO2ZpbGwtb3BhY2l0eToxO3N0cm9rZTpub25lO3N0cm9rZS13aWR0aDoyMDtzdHJva2UtbGluZWNhcDpyb3VuZDtzdHJva2UtbGluZWpvaW46cm91bmQ7c3Ryb2tlLW1pdGVybGltaXQ6NDtzdHJva2UtZGFzaGFycmF5Om5vbmU7c3Ryb2tlLW9wYWNpdHk6MSIvPiYjeGE7ICA8L2c+JiN4YTsgIDxnIHN0eWxlPSJkaXNwbGF5Om5vbmUiIGlkPSJsYXllcjQiPiYjeGE7ICAgIDxwYXRoIHN0eWxlPSJzdHJva2U6IzAwMDAwMDtzdHJva2Utd2lkdGg6MC42MDAwMDAwMjtzdHJva2UtbWl0ZXJsaW1pdDo0O3N0cm9rZS1kYXNoYXJyYXk6bm9uZTtzdHJva2Utb3BhY2l0eToxIiBpZD0icGF0aDQwMSIgZD0iTSAzMCw2MCBIIDU3MCIvPiYjeGE7ICAgIDxwYXRoIHN0eWxlPSJzdHJva2U6IzAwMDAwMDtzdHJva2Utd2lkdGg6MC42MDAwMDAwMjtzdHJva2UtbWl0ZXJsaW1pdDo0O3N0cm9rZS1kYXNoYXJyYXk6bm9uZTtzdHJva2Utb3BhY2l0eToxIiBpZD0icGF0aDQwMiIgZD0iTSAxNTAsMTIwIEggNDUwIi8+JiN4YTsgICAgPHBhdGggc3R5bGU9InN0cm9rZTojMDAwMDAwO3N0cm9rZS13aWR0aDowLjYwMDAwMDAyO3N0cm9rZS1taXRlcmxpbWl0OjQ7c3Ryb2tlLWRhc2hhcnJheTpub25lO3N0cm9rZS1vcGFjaXR5OjEiIGlkPSJwYXRoNDAzIiBkPSJNIDMwLDE4MCBIIDU3MCIvPiYjeGE7ICAgIDxwYXRoIHN0eWxlPSJkaXNwbGF5OmlubGluZTtzdHJva2U6IzAwMDAwMDtzdHJva2Utd2lkdGg6MC42MDAwMDAwMjtzdHJva2UtbWl0ZXJsaW1pdDo0O3N0cm9rZS1kYXNoYXJyYXk6bm9uZTtzdHJva2Utb3BhY2l0eToxIiBpZD0icGF0aDQwNCIgZD0iTSAzMzAsMjQwIEggNDUwIi8+JiN4YTsgICAgPHBhdGggc3R5bGU9InN0cm9rZTojMDAwMDAwO3N0cm9rZS13aWR0aDowLjYwMDAwMDAyO3N0cm9rZS1taXRlcmxpbWl0OjQ7c3Ryb2tlLWRhc2hhcnJheTpub25lO3N0cm9rZS1vcGFjaXR5OjEiIGlkPSJwYXRoNDA1IiBkPSJNIDMwLDMwMCBIIDU3MCIvPiYjeGE7ICAgIDxwYXRoIHN0eWxlPSJkaXNwbGF5OmlubGluZTtzdHJva2U6IzAwMDAwMDtzdHJva2Utd2lkdGg6MC42MDAwMDAwMjtzdHJva2UtbWl0ZXJsaW1pdDo0O3N0cm9rZS1kYXNoYXJyYXk6bm9uZTtzdHJva2Utb3BhY2l0eToxIiBpZD0icGF0aDQwNiIgZD0iTSAxNTAsMzYwIEggMjcwIi8+JiN4YTsgICAgPHBhdGggc3R5bGU9InN0cm9rZTojMDAwMDAwO3N0cm9rZS13aWR0aDowLjYwMDAwMDAyO3N0cm9rZS1taXRlcmxpbWl0OjQ7c3Ryb2tlLWRhc2hhcnJheTpub25lO3N0cm9rZS1vcGFjaXR5OjEiIGlkPSJwYXRoNDA3IiBkPSJNIDMwLDQyMCBIIDU3MCIvPiYjeGE7ICAgIDxwYXRoIHN0eWxlPSJzdHJva2U6IzAwMDAwMDtzdHJva2Utd2lkdGg6MC42MDAwMDAwMjtzdHJva2UtbWl0ZXJsaW1pdDo0O3N0cm9rZS1kYXNoYXJyYXk6bm9uZTtzdHJva2Utb3BhY2l0eToxIiBpZD0icGF0aDQwOCIgZD0iTSAxNTAsNDgwIEggNDUwIi8+JiN4YTsgICAgPHBhdGggc3R5bGU9InN0cm9rZTojMDAwMDAwO3N0cm9rZS13aWR0aDowLjYwMDAwMDAyO3N0cm9rZS1taXRlcmxpbWl0OjQ7c3Ryb2tlLWRhc2hhcnJheTpub25lO3N0cm9rZS1vcGFjaXR5OjEiIGlkPSJwYXRoNDA5IiBkPSJNIDMwLDU0MCBIIDU3MCIvPiYjeGE7ICAgIDxwYXRoIHN0eWxlPSJzdHJva2U6IzAwMDAwMDtzdHJva2Utd2lkdGg6MC42MDAwMDAwMjtzdHJva2UtbWl0ZXJsaW1pdDo0O3N0cm9rZS1kYXNoYXJyYXk6bm9uZTtzdHJva2Utb3BhY2l0eToxIiBpZD0icGF0aDQxMCIgZD0iTSA2MCwzMCBWIDU3MCIvPiYjeGE7ICAgIDxwYXRoIHN0eWxlPSJzdHJva2U6IzAwMDAwMDtzdHJva2Utd2lkdGg6MC42MDAwMDAwMjtzdHJva2UtbWl0ZXJsaW1pdDo0O3N0cm9rZS1kYXNoYXJyYXk6bm9uZTtzdHJva2Utb3BhY2l0eToxIiBpZD0icGF0aDQxMSIgZD0iTSAxMjAsNDUwIFYgMTUwIi8+JiN4YTsgICAgPHBhdGggc3R5bGU9InN0cm9rZTojMDAwMDAwO3N0cm9rZS13aWR0aDowLjYwMDAwMDAyO3N0cm9rZS1taXRlcmxpbWl0OjQ7c3Ryb2tlLWRhc2hhcnJheTpub25lO3N0cm9rZS1vcGFjaXR5OjEiIGlkPSJwYXRoNDEyIiBkPSJNIDE4MCwzMCBWIDU3MCIvPiYjeGE7ICAgIDxwYXRoIHN0eWxlPSJzdHJva2U6IzAwMDAwMDtzdHJva2Utd2lkdGg6MC42MDAwMDAwMjtzdHJva2UtbWl0ZXJsaW1pdDo0O3N0cm9rZS1kYXNoYXJyYXk6bm9uZTtzdHJva2Utb3BhY2l0eToxIiBpZD0icGF0aDQxMyIgZD0iTSAyNDAsMzAgViAyMTAiLz4mI3hhOyAgICA8cGF0aCBzdHlsZT0iZGlzcGxheTppbmxpbmU7c3Ryb2tlOiMwMDAwMDA7c3Ryb2tlLXdpZHRoOjAuNjAwMDAwMDI7c3Ryb2tlLW1pdGVybGltaXQ6NDtzdHJva2UtZGFzaGFycmF5Om5vbmU7c3Ryb2tlLW9wYWNpdHk6MSIgaWQ9InBhdGg0MTQiIGQ9Ik0gMjQwLDI3MCBWIDM5MCIvPiYjeGE7ICAgIDxwYXRoIHN0eWxlPSJzdHJva2U6IzAwMDAwMDtzdHJva2Utd2lkdGg6MC42MDAwMDAwMjtzdHJva2UtbWl0ZXJsaW1pdDo0O3N0cm9rZS1kYXNoYXJyYXk6bm9uZTtzdHJva2Utb3BhY2l0eToxIiBpZD0icGF0aDQxNSIgZD0iTSAzMDAsMzAgViA1NzAiLz4mI3hhOyAgICA8cGF0aCBzdHlsZT0iZGlzcGxheTppbmxpbmU7c3Ryb2tlOiMwMDAwMDA7c3Ryb2tlLXdpZHRoOjAuNjAwMDAwMDI7c3Ryb2tlLW1pdGVybGltaXQ6NDtzdHJva2UtZGFzaGFycmF5Om5vbmU7c3Ryb2tlLW9wYWNpdHk6MSIgaWQ9InBhdGg0MTYiIGQ9Ik0gMzYwLDIxMCBWIDMzMCIvPiYjeGE7ICAgIDxwYXRoIHN0eWxlPSJzdHJva2U6IzAwMDAwMDtzdHJva2Utd2lkdGg6MC42MDAwMDAwMjtzdHJva2UtbWl0ZXJsaW1pdDo0O3N0cm9rZS1kYXNoYXJyYXk6bm9uZTtzdHJva2Utb3BhY2l0eToxIiBpZD0icGF0aDQxNyIgZD0iTSAzNjAsMzkwIFYgNTcwIi8+JiN4YTsgICAgPHBhdGggc3R5bGU9InN0cm9rZTojMDAwMDAwO3N0cm9rZS13aWR0aDowLjYwMDAwMDAyO3N0cm9rZS1taXRlcmxpbWl0OjQ7c3Ryb2tlLWRhc2hhcnJheTpub25lO3N0cm9rZS1vcGFjaXR5OjEiIGlkPSJwYXRoNDE4IiBkPSJNIDQyMCwzMCBWIDU3MCIvPiYjeGE7ICAgIDxwYXRoIHN0eWxlPSJzdHJva2U6IzAwMDAwMDtzdHJva2Utd2lkdGg6MC42MDAwMDAwMjtzdHJva2UtbWl0ZXJsaW1pdDo0O3N0cm9rZS1kYXNoYXJyYXk6bm9uZTtzdHJva2Utb3BhY2l0eToxIiBpZD0icGF0aDQxOSIgZD0iTSA0ODAsNDUwIFYgMTUwIi8+JiN4YTsgICAgPHBhdGggc3R5bGU9InN0cm9rZTojMDAwMDAwO3N0cm9rZS13aWR0aDowLjYwMDAwMDAyO3N0cm9rZS1taXRlcmxpbWl0OjQ7c3Ryb2tlLWRhc2hhcnJheTpub25lO3N0cm9rZS1vcGFjaXR5OjEiIGlkPSJwYXRoNDIwIiBkPSJNIDU0MCwzMCBWIDU3MCIvPiYjeGE7ICA8L2c+JiN4YTs8L3N2Zz4=;" parent="8EW6fI2R_Ii0T-t069nl-87" vertex="1">
          <mxGeometry x="-5.25" y="6.5" width="33.5" height="33.5" as="geometry" />
        </mxCell>
        <mxCell id="8EW6fI2R_Ii0T-t069nl-89" value="Calculates Mining Rewards&amp;nbsp;" style="text;html=1;align=center;verticalAlign=middle;whiteSpace=wrap;rounded=0;" parent="1" vertex="1">
          <mxGeometry x="526.5" y="200" width="103.5" height="40" as="geometry" />
        </mxCell>
        <mxCell id="8EW6fI2R_Ii0T-t069nl-90" value="&lt;ul&gt;&lt;li&gt;Fetches Blocks using Indices and Views&lt;/li&gt;&lt;li style=&quot;&quot;&gt;Provides methods to query the database&lt;/li&gt;&lt;/ul&gt;" style="text;html=1;align=left;verticalAlign=middle;whiteSpace=wrap;rounded=0;" parent="1" vertex="1">
          <mxGeometry x="205" y="190" width="160" height="101.5" as="geometry" />
        </mxCell>
        <mxCell id="8EW6fI2R_Ii0T-t069nl-91" value="&lt;ul&gt;&lt;li&gt;Queries tables using time-series functions&lt;/li&gt;&lt;li&gt;Provides methods to query the database&lt;/li&gt;&lt;/ul&gt;" style="text;html=1;align=left;verticalAlign=middle;whiteSpace=wrap;rounded=0;" parent="1" vertex="1">
          <mxGeometry x="196" y="483" width="160" height="101.5" as="geometry" />
        </mxCell>
        <mxCell id="8EW6fI2R_Ii0T-t069nl-93" value="&lt;span style=&quot;background-color: initial;&quot;&gt;Provides classes with methods to do graph theory very fast&amp;nbsp;&lt;/span&gt;" style="text;html=1;align=left;verticalAlign=middle;whiteSpace=wrap;rounded=0;" parent="1" vertex="1">
          <mxGeometry x="408.5" y="313" width="131.5" height="90" as="geometry" />
        </mxCell>
        <mxCell id="8EW6fI2R_Ii0T-t069nl-94" value="&lt;span style=&quot;background-color: initial;&quot;&gt;Provides model classes for&amp;nbsp;&lt;/span&gt;&lt;div&gt;- BitcoinBlock&lt;br&gt;&lt;div&gt;&lt;span style=&quot;background-color: initial;&quot;&gt;- LightningNodes&lt;/span&gt;&lt;/div&gt;&lt;div&gt;&lt;span style=&quot;background-color: initial;&quot;&gt;- LightningChannels&amp;nbsp;&lt;/span&gt;&lt;span style=&quot;background-color: initial;&quot;&gt;&amp;nbsp;&amp;nbsp;&lt;/span&gt;&lt;/div&gt;&lt;/div&gt;" style="text;html=1;align=left;verticalAlign=middle;whiteSpace=wrap;rounded=0;" parent="1" vertex="1">
          <mxGeometry x="600" y="330" width="132.5" height="89" as="geometry" />
        </mxCell>
        <mxCell id="8EW6fI2R_Ii0T-t069nl-95" value="&lt;span style=&quot;background-color: initial;&quot;&gt;Analyses the Lightning Network using graph theory&lt;/span&gt;" style="text;html=1;align=left;verticalAlign=middle;whiteSpace=wrap;rounded=0;" parent="1" vertex="1">
          <mxGeometry x="555.61" y="470" width="145.5" height="84.5" as="geometry" />
        </mxCell>
        <mxCell id="8EW6fI2R_Ii0T-t069nl-97" value="&lt;span style=&quot;background-color: initial;&quot;&gt;Provides interfaces for caching Lightning Networks&lt;/span&gt;" style="text;html=1;align=left;verticalAlign=middle;whiteSpace=wrap;rounded=0;" parent="1" vertex="1">
          <mxGeometry x="526.5" y="650" width="145.5" height="84.5" as="geometry" />
        </mxCell>
        <mxCell id="8EW6fI2R_Ii0T-t069nl-98" value="&lt;span style=&quot;background-color: initial;&quot;&gt;Provides RESTful API endpoints&lt;/span&gt;&lt;div&gt;&lt;span style=&quot;background-color: initial;&quot;&gt;&amp;nbsp; &amp;nbsp; -Bitcoin&lt;/span&gt;&lt;br&gt;&lt;span style=&quot;background-color: initial;&quot;&gt;&amp;nbsp; &amp;nbsp; -LightningNetwork&lt;/span&gt;&lt;br&gt;&lt;span style=&quot;background-color: initial;&quot;&gt;&amp;nbsp; &amp;nbsp; -Channels&lt;/span&gt;&lt;br&gt;&lt;div&gt;&lt;span style=&quot;background-color: initial;&quot;&gt;&amp;nbsp; &amp;nbsp; -Nodes&lt;/span&gt;&lt;/div&gt;&lt;/div&gt;" style="text;html=1;align=left;verticalAlign=middle;whiteSpace=wrap;rounded=0;" parent="1" vertex="1">
          <mxGeometry x="810" y="421.5" width="140" height="112.25" as="geometry" />
        </mxCell>
      </root>
    </mxGraphModel>
  </diagram>
</mxfile>
